<svg width="261" height="261" viewBox="0 0 261 261" fill="none" xmlns="http://www.w3.org/2000/svg">
<path d="M89.052 185.105C77.9752 182.679 66.6948 180.171 56.5876 174.831C41.8632 167.053 31.1792 153.716 33.75 136.483C33.8584 135.759 32.599 135.557 32.462 136.281C30.4562 146.879 34.4104 157.643 41.2316 165.222C53.3068 178.641 71.6068 183.038 88.594 186.653C89.5936 186.866 90.0569 185.326 89.052 185.105Z" fill="#3ED1E5"/>
<path d="M124.954 86.2409C132.914 85.5349 135.809 84.7832 144.237 85.9147C145.249 86.0517 145.517 84.4792 144.498 84.3487C138.74 83.6179 130.252 83.4287 124.65 84.9137C123.884 85.1134 124.202 86.3075 124.954 86.2409Z" fill="#3ED1E5"/>
<path d="M60.1607 101.543C55.002 102.941 44.8569 109.223 41.5944 113.575C41.1077 114.228 42.123 114.843 42.6384 114.386C47.8757 109.426 54.0163 105.519 60.727 102.874C61.5139 102.547 60.9358 101.333 60.1607 101.543Z" fill="#3ED1E5"/>
<path d="M220.692 107.563C221.359 108.242 222.332 107.172 221.699 106.486C217.486 101.879 208.566 96.424 201.917 95.8642C200.013 95.7036 200.806 96.8573 201.634 97.0295C208.889 98.5781 215.522 102.244 220.692 107.563Z" fill="#3ED1E5"/>
<path d="M232.327 127.005C233.267 138.701 232.43 147.569 226.474 158.052C222.64 164.704 217.274 170.344 210.822 174.504C204.37 178.664 197.018 181.225 189.378 181.972C189.182 182.004 189.006 182.109 188.884 182.266C188.763 182.423 188.706 182.62 188.724 182.817C188.742 183.015 188.835 183.198 188.983 183.33C189.132 183.461 189.324 183.532 189.522 183.527C197.11 182.873 204.439 180.448 210.919 176.447C217.399 172.446 222.851 166.981 226.835 160.49C232.518 151.355 234.973 139.636 233.347 126.744C233.256 126.023 232.272 126.324 232.327 127.005Z" fill="#3ED1E5"/>
<path d="M162.636 102.484C165.917 102.734 169.208 102.814 172.497 102.723C174.278 102.732 174.386 101.178 172.497 101.145C170.248 101.106 164.905 101.096 162.672 101.225C162.042 101.268 162 102.352 162.636 102.484Z" fill="#3ED1E5"/>
<path d="M156.731 129.226C156.006 129.306 155.92 130.531 156.694 130.558C160.5 130.658 171.672 130.655 175.701 130.384C176.526 130.328 176.635 128.881 175.738 128.871C171.796 128.834 159.98 128.87 156.731 129.226Z" fill="#3ED1E5"/>
<path d="M157.983 115.848C157.434 115.942 157.391 116.911 157.983 116.984C160.653 117.309 170.284 117.094 173.692 117.274C175.637 117.376 175.862 115.73 173.692 115.688C170.834 115.635 160.254 115.463 157.983 115.848Z" fill="#3ED1E5"/>
<path d="M117.227 103.381C130.302 103.533 144.423 102.976 157.52 102.882C157.72 102.874 157.909 102.789 158.047 102.645C158.186 102.5 158.263 102.308 158.263 102.108C158.263 101.908 158.186 101.715 158.047 101.571C157.909 101.427 157.72 101.341 157.52 101.333C144.424 101.52 130.286 101.449 117.219 101.97C117.06 102.008 116.919 102.099 116.818 102.227C116.717 102.356 116.662 102.515 116.663 102.679C116.664 102.842 116.72 103 116.823 103.128C116.925 103.255 117.067 103.345 117.227 103.381Z" fill="#3ED1E5"/>
<path d="M162.983 123.706C163.168 123.688 163.34 123.603 163.467 123.467C163.594 123.331 163.667 123.154 163.674 122.968C163.68 122.782 163.618 122.601 163.501 122.457C163.383 122.313 163.217 122.217 163.034 122.186C161.421 122.135 159.8 122.186 158.187 122.259C158.043 122.304 157.917 122.392 157.826 122.512C157.735 122.631 157.683 122.777 157.678 122.927C157.673 123.077 157.716 123.226 157.799 123.351C157.882 123.476 158.002 123.573 158.143 123.627C159.751 123.78 161.37 123.806 162.983 123.706Z" fill="#3ED1E5"/>
<path d="M167.549 122.331C166.825 122.409 166.904 123.589 167.629 123.611C169.394 123.667 173.222 123.67 174.986 123.539C175.169 123.504 175.333 123.403 175.447 123.256C175.561 123.108 175.618 122.924 175.607 122.738C175.595 122.552 175.516 122.377 175.385 122.245C175.253 122.112 175.078 122.033 174.892 122.02C173.128 122.006 169.321 122.139 167.549 122.331Z" fill="#3ED1E5"/>
<path d="M144.381 108.62C144.228 108.644 144.089 108.723 143.991 108.843C143.893 108.963 143.842 109.114 143.848 109.269C143.854 109.424 143.917 109.571 144.025 109.682C144.133 109.793 144.278 109.861 144.432 109.872C152.864 110.24 164.322 109.687 172.779 109.648C175.602 109.634 175.479 107.897 172.7 107.99C164.256 108.275 152.788 108.098 144.381 108.62Z" fill="#3ED1E5"/>
<path d="M117.125 108.721C116.49 108.867 116.568 109.988 117.213 110.002C122.067 110.103 128.785 109.901 133.701 110.002C134.556 110.019 134.664 108.556 133.803 108.482C131.474 108.284 119.565 108.161 117.125 108.721Z" fill="#3ED1E5"/>
<path d="M116.741 124.566C118.413 124.646 121.33 124.838 123.005 124.733C123.903 124.677 123.773 123.35 123.15 123.286C121.48 123.115 118.563 123.137 116.886 123.135C116.707 123.134 116.534 123.2 116.401 123.321C116.267 123.441 116.184 123.606 116.166 123.785C116.147 123.963 116.196 124.142 116.303 124.286C116.409 124.431 116.566 124.531 116.741 124.566Z" fill="#3ED1E5"/>
<path d="M116.112 131.317C117.755 131.326 120.626 131.298 122.269 131.223C122.372 131.22 122.473 131.196 122.567 131.154C122.661 131.112 122.745 131.051 122.816 130.976C122.886 130.901 122.941 130.813 122.978 130.717C123.014 130.621 123.031 130.518 123.028 130.415C123.024 130.313 123.001 130.211 122.959 130.118C122.916 130.024 122.856 129.939 122.781 129.869C122.706 129.799 122.618 129.744 122.521 129.707C122.425 129.671 122.323 129.654 122.22 129.657C120.577 129.72 117.705 129.829 116.069 130.004C115.389 130.08 115.461 131.313 116.112 131.317Z" fill="#3ED1E5"/>
<path d="M116.742 116.928H125.425C127.121 116.928 127.105 115.465 125.425 115.344C122.488 115.268 119.548 115.345 116.619 115.576C115.837 115.623 115.982 116.928 116.742 116.928Z" fill="#3ED1E5"/>
<path d="M163.533 155.418C150.84 149.635 129.389 150.297 116.018 155.781C104.319 160.578 93.7186 173.694 92.4383 185.04C91.2077 195.951 100.202 197.698 108.291 194.402C108.776 190.575 111.144 178.428 112.632 174.715C112.907 174.028 113.568 174.193 113.487 174.933C112.073 187.7 109.311 197.608 108.761 211.529C125.027 220.486 156.168 216.21 169.017 212.976C169.491 199.88 167.647 186.803 163.569 174.348C163.331 173.574 163.982 173.234 164.352 173.972C167.047 180.02 168.849 186.428 169.702 192.994C177.01 197.734 186.953 192.185 186.387 184.5C185.688 174.99 180.005 162.922 163.533 155.418ZM132.811 177.681C131.738 179.089 124.068 184.461 122.451 185.642C124.166 187.132 127.662 190.09 129.006 191.56C129.607 192.212 128.81 192.696 128.152 192.458C126.474 191.85 121.72 187.393 120.569 186.207C120.469 186.12 120.39 186.013 120.337 185.892C120.284 185.771 120.258 185.64 120.263 185.508C120.267 185.376 120.301 185.247 120.361 185.13C120.422 185.013 120.508 184.911 120.613 184.831C123.064 183.016 129.759 177.93 132.19 176.871C132.84 176.589 133.197 177.176 132.811 177.681ZM134.983 193.795C134.034 195.712 133.025 194.208 133.354 193.361C134.685 189.902 139.54 177.377 141.082 175.221C141.515 174.613 142.086 175.112 142.037 175.67C141.793 178.438 135.184 193.793 134.983 193.793V193.795ZM157.298 183.76C154.461 186.333 150.487 190.441 147.473 192.536C145.8 193.699 144.881 192.86 146.452 191.444C149.344 188.834 152.284 186.038 155.208 183.441C153.642 182.631 146.664 178.852 145.511 177.928C145.042 177.551 145.28 176.858 145.938 177.044C148.788 177.853 154.053 180.997 156.98 182.464C157.41 182.678 157.743 183.36 157.303 183.76H157.298Z" fill="#3ED1E5"/>
<path d="M229.838 72.2043C222.777 83.4273 212.053 79.7002 209.622 70.4817C204.094 70.9737 197.764 73.1152 194.812 76.6831C199.529 79.9534 199.783 82.2319 200.991 92.6445C201.259 90.2082 201.939 87.835 203.002 85.6262C203.319 84.9737 204.12 85.2987 203.915 85.9512C202.968 88.6293 202.389 91.4236 202.194 94.2575C207.259 94.9374 218.915 98.9242 224.333 107.382C227.481 106.796 230.586 106.428 233.74 106.008C233.326 102.537 232.6 99.1103 231.57 95.77C231.343 95.0444 232.1 94.6973 232.46 95.4007C233.726 98.7707 234.581 102.281 235.006 105.856C235.843 105.751 236.687 105.695 237.531 105.689C238.255 105.689 238.371 106.528 237.72 106.587C230.349 107.21 223.068 108.646 216.013 110.87C218.554 113.373 220.007 118.554 219.566 124.66C223.133 125.384 246.71 126.991 252.741 114.792C258.771 102.593 248.549 76.1323 229.838 72.2043Z" fill="#3ED1E5"/>
<path d="M46.6525 116.513C39.8866 116.003 33.0837 116.317 26.3937 117.45C25.6707 117.59 25.6199 116.726 26.2854 116.48C27.1012 116.228 27.9361 116.041 28.7819 115.923C28.4634 113.927 28.6657 108.181 29.758 106.307C30.0621 105.785 30.6715 105.802 30.5332 106.488C29.9094 109.534 29.7118 112.653 29.9459 115.754C32.5853 115.377 35.2423 115.135 37.9064 115.029C42.1751 109.418 52.7025 101.905 60.8862 99.9579C60.0241 97.0113 58.8855 94.1528 57.4853 91.4205C57.2009 90.8542 57.8299 90.2891 58.2814 90.8855C59.8752 93.0074 61.078 95.3964 61.8336 97.9403C62.3478 91.2183 63.5849 87.4703 65.3427 84.4897C64.518 83.3817 59.6569 78.7007 54.0558 78.2166C46.7987 97.5306 29.8676 86.9209 28.406 79.9744C2.45219 91.2117 3.34089 128.728 11.9304 134.03C21.9645 140.225 40.3585 131.744 44.3231 129.733C43.3026 125.334 43.2452 120.667 46.6525 116.513Z" fill="#3ED1E5"/>
<path d="M153.454 123.988C154.328 118.309 152.955 114.379 145.763 115.102C141.299 115.551 136.183 118.104 135.496 120.963C134.491 119.407 129.991 116.619 128.55 119.769C125.244 126.999 132.116 141.072 134.684 142.532C136.439 143.378 138.36 143.821 140.308 143.828C142.256 143.836 144.181 143.407 145.942 142.575C150.061 140.303 152.346 131.196 153.454 123.988Z" fill="#186CA8"/>
<path d="M154.503 134.24C154.416 134.011 154.272 133.807 154.085 133.648C153.897 133.49 153.673 133.381 153.432 133.333C153.192 133.284 152.943 133.298 152.708 133.372C152.474 133.446 152.263 133.578 152.094 133.756C151.592 134.311 152.261 134.828 152.947 134.539C154.004 134.093 153.476 138.663 150.502 139.293C149.005 139.612 148.846 140.684 149.967 140.741C152.685 140.874 155.406 136.534 154.503 134.24Z" fill="#186CA8"/>
<path d="M145.705 144.435C145.816 145.628 146.51 149.613 147.515 150.506C147.828 150.785 148.565 150.592 148.499 150.136C148.392 149.412 147.298 145.453 147.211 144.284C147.202 144.184 147.173 144.088 147.126 144C147.079 143.912 147.015 143.834 146.938 143.771C146.861 143.708 146.772 143.661 146.677 143.633C146.581 143.604 146.481 143.595 146.382 143.606C146.183 143.627 145.999 143.726 145.873 143.881C145.746 144.036 145.685 144.235 145.705 144.435Z" fill="#186CA8"/>
<path d="M131.944 140.288C131.343 139.839 130.769 140.739 129.049 137.791C128.766 137.307 127.552 134.47 128.543 134.629C128.949 134.694 129.375 133.965 128.955 133.551C127.841 132.454 125.721 134.218 127.567 137.893C130.251 143.241 133.203 141.23 131.944 140.288Z" fill="#186CA8"/>
<path d="M134.114 144.616C133.962 146.505 133.582 148.371 133.254 150.253C133.151 150.839 134.071 150.918 134.352 150.44C134.946 148.628 135.335 146.754 135.511 144.855C135.505 144.689 135.442 144.53 135.332 144.405C135.223 144.279 135.073 144.196 134.909 144.168C134.745 144.14 134.577 144.169 134.432 144.251C134.287 144.332 134.175 144.462 134.114 144.616Z" fill="#186CA8"/>
<path d="M224.057 70.5406C222.379 75.8363 218.315 77.893 214.731 74.6279C211.719 71.8874 210.621 67.868 209.528 64.1083C209.342 63.4636 208.573 63.7168 208.704 64.3536C212.348 82.1538 223.581 78.813 224.896 70.7064C225.034 70.0787 224.25 69.9312 224.057 70.5406Z" fill="#186CA8"/>
<path d="M211.959 63.761C211.069 63.6905 209.965 64.3234 210.222 65.0334C210.37 65.4379 210.7 64.8689 212.104 64.8963C212.886 64.912 212.733 63.821 211.959 63.761Z" fill="#186CA8"/>
<path d="M216.706 63.9777C216.572 64.0163 216.457 64.1032 216.383 64.2217C216.309 64.3401 216.282 64.4816 216.306 64.619C216.33 64.7564 216.405 64.88 216.515 64.9659C216.625 65.0518 216.762 65.094 216.902 65.0843C218.515 64.9903 219.007 65.9169 219.408 65.2983C219.477 65.1916 219.501 65.062 219.475 64.9377C219.448 64.8135 219.374 64.7048 219.268 64.6354C218.913 64.3478 218.501 64.1401 218.059 64.0266C217.616 63.9131 217.155 63.8964 216.706 63.9777Z" fill="#186CA8"/>
<path d="M220.013 71.3719C219.913 70.7063 219.222 70.8721 218.969 71.5676C218.633 72.4929 217.109 72.6821 217.521 73.1885C218.03 73.9049 220.236 72.8766 220.013 71.3719Z" fill="#186CA8"/>
<path d="M217.559 67.2701C217.318 65.8229 215.949 66.3566 216.416 67.95C216.613 68.6221 217.795 68.6743 217.559 67.2701Z" fill="#186CA8"/>
<path d="M211.757 66.3724C211.105 66.6464 211.496 68.2868 212.286 68.1994C212.951 68.1211 212.878 65.9026 211.757 66.3724Z" fill="#186CA8"/>
<path d="M214.811 68.3548C214.712 67.6735 214.34 67.7688 214.137 68.3548C213.935 68.9407 213.609 70.7938 214.072 71.2492C214.535 71.7047 215.326 71.616 216.242 71.2062C216.866 70.9269 216.691 70.4819 216.177 70.4819C215.746 70.5675 215.303 70.5675 214.872 70.4819C214.673 70.3736 214.915 69.0777 214.811 68.3548Z" fill="#186CA8"/>
<path d="M236.125 46.3745C233.907 43.6406 229.144 43.5453 225.866 45.2601C225.734 45.3438 225.64 45.4758 225.604 45.6278C225.568 45.7797 225.593 45.9397 225.673 46.0737C225.754 46.2076 225.883 46.3048 226.034 46.3447C226.185 46.3846 226.346 46.3639 226.481 46.2871C229.548 44.7746 233.671 45.1739 235.264 47.4525C238.026 51.3975 232.953 54.891 230.199 56.7571C229.677 57.1108 230.128 58.0373 230.721 57.7554C234.678 55.8736 239.631 50.6967 236.125 46.3745Z" fill="#186CA8"/>
<path d="M46.1827 80.1924C45.568 80.0841 45.4571 80.5722 46.0665 80.8449C46.8247 81.1908 48.2328 81.393 48.5199 80.6936C48.7117 80.2224 48.4116 77.127 47.6221 77.0108C46.8325 76.8947 47.8831 79.9053 47.6221 80.2237C47.1453 80.3139 46.655 80.3032 46.1827 80.1924Z" fill="#186CA8"/>
<path d="M49.41 76.6754C49.2613 78.0796 50.5636 77.7833 50.6328 76.7341C50.7229 75.3586 49.5288 75.5596 49.41 76.6754Z" fill="#186CA8"/>
<path d="M43.809 77.7037C43.9395 78.5637 44.93 78.1944 45.0684 77.3631C45.3046 75.9511 43.5533 75.9955 43.809 77.7037Z" fill="#186CA8"/>
<path d="M51.2253 73.2537C50.9614 72.9709 50.6241 72.767 50.251 72.6647C49.8779 72.5624 49.4838 72.5657 49.1125 72.6743C48.3843 72.8988 48.5683 73.8293 49.3957 73.6661C49.911 73.5659 50.4451 73.6476 50.9069 73.8971C51.2866 74.1046 51.4785 73.6439 51.2253 73.2537Z" fill="#186CA8"/>
<path d="M41.499 82.2764C41.7408 82.7206 42.116 83.0777 42.5717 83.2971C43.0274 83.5165 43.5405 83.5872 44.0386 83.4991C44.8346 83.3895 44.7628 82.6235 44.1691 82.5948C43.8414 82.6142 43.5136 82.5591 43.2103 82.4336C42.907 82.3082 42.636 82.1157 42.4177 81.8705C42.021 81.3015 41.2067 81.5364 41.499 82.2764Z" fill="#186CA8"/>
<path d="M44.7211 73.1453C44.162 72.9894 43.5646 73.052 43.05 73.3206C42.5355 73.5891 42.1424 74.0434 41.9506 74.5912C41.7705 75.1302 42.2325 75.3742 42.6736 74.9318C42.9056 74.692 43.1887 74.5076 43.5019 74.3924C43.815 74.2771 44.1502 74.234 44.4823 74.2663C45.3279 74.3511 45.401 73.3984 44.7211 73.1453Z" fill="#186CA8"/>
<path d="M47.2176 85.894C52.2823 82.5519 53.2663 76.0464 53.6643 70.4676C59.5459 68.4853 60.0588 61.142 54.6339 60.0928C58.6794 53.9932 41.4874 46.9384 39.4959 55.3609C34.2146 51.4537 28.0498 57.9004 30.7276 60.6422C29.9221 60.3671 29.042 60.4092 28.2664 60.76C27.4908 61.1107 26.878 61.7438 26.5526 62.5304C26.2273 63.317 26.2138 64.198 26.5149 64.9941C26.8161 65.7903 27.4093 66.4418 28.1737 66.8162C24.5563 67.62 25.5977 75.9616 29.9394 75.6288C30.145 76.327 30.5588 76.9458 31.1257 77.4023C30.3583 78.6108 29.7946 81.3513 30.7342 81.4322C31.3997 81.4896 31.7116 78.7543 32.0953 77.9883C34.366 78.9357 34.3138 76.9769 33.412 76.9599C31.2405 76.9221 30.6402 74.5365 31.5015 72.8296C32.3628 71.1227 34.6609 70.709 34.9023 72.4381C35.1307 74.0798 40.0245 72.3076 40.7983 69.8686C44.5226 71.1816 48.5206 71.5207 52.4128 70.8538C51.913 75.9185 51.2187 81.7062 46.6238 84.7743C42.0289 87.8423 36.8063 85.1827 35.0472 80.3895C34.8488 79.8479 34.2094 80.1285 34.3594 80.6792C35.9228 86.4277 42.1607 89.2295 47.2176 85.894Z" fill="#186CA8"/>
<path d="M228.948 61.1055C228.676 59.0684 227.682 59.7378 227.754 60.3812C227.892 61.0835 227.892 61.806 227.754 62.5083C227.495 62.2557 227.177 62.0717 226.83 61.9729C226.482 61.8742 226.115 61.8639 225.762 61.943C225.409 62.0221 225.081 62.188 224.809 62.4258C224.537 62.6635 224.328 62.9655 224.202 63.3044C223.181 62.9207 223.146 62.2499 222.505 62.4287C222.217 62.5096 222.253 62.8907 222.47 63.1895C223.804 65.0335 224.942 64.5219 225.08 64.0574C225.471 62.6715 227.298 62.6101 227.468 64.4489C227.599 65.8087 227.23 67.7949 225.537 67.821C224.812 67.8314 224.623 69.0868 225.761 69.0503C226.18 70.2732 226.701 71.4592 227.317 72.596C227.656 73.225 228.545 72.7565 228.278 72.2345C227.704 71.1001 227.255 69.9064 226.939 68.6745C229.111 67.3499 228.554 64.2375 228.575 64.0796C228.963 63.1395 229.092 62.1124 228.948 61.1055Z" fill="#186CA8"/>
<path d="M48.4913 117.613C48.3281 117.622 48.175 117.695 48.0657 117.816C47.9565 117.938 47.8999 118.098 47.9086 118.261C47.9172 118.424 47.9904 118.577 48.1119 118.687C48.2334 118.796 48.3933 118.852 48.5565 118.844C53.907 119.024 55.3843 119.496 58.9313 122.149C59.5107 122.583 60.1749 122.027 59.7351 121.426C57.6315 118.562 52.1087 117.189 48.4913 117.613Z" fill="#186CA8"/>
<path d="M58.2435 132.678C54.2201 135.891 54.7787 137.172 51.4287 136.267C48.0357 135.353 44.5501 133.56 41.1832 132.901C41.0393 132.878 40.8916 132.905 40.7654 132.978C40.6392 133.051 40.5422 133.165 40.4909 133.302C40.4396 133.438 40.4373 133.588 40.4843 133.726C40.5313 133.864 40.6247 133.982 40.7486 134.059C44.1211 135.492 47.5764 136.722 51.096 137.743C51.7705 138.039 52.5086 138.162 53.2428 138.1C53.9771 138.038 54.6841 137.793 55.2994 137.388C57.8859 135.422 58.9247 134.236 59.2353 133.532C59.7024 132.472 58.4536 132.51 58.2435 132.678Z" fill="#186CA8"/>
<path d="M51.4289 124.711C51.289 124.739 51.1631 124.814 51.0726 124.924C50.9821 125.035 50.9326 125.173 50.9326 125.315C50.9326 125.458 50.9821 125.596 51.0726 125.706C51.1631 125.816 51.289 125.892 51.4289 125.92C55.4052 126.615 54.9954 129.69 55.4509 130.203C55.9063 130.715 56.8224 130.588 56.5875 129.002C56.4112 127.775 55.7861 126.657 54.8332 125.865C53.8803 125.072 52.6673 124.661 51.4289 124.711Z" fill="#186CA8"/>
<path d="M46.1463 127.629C46.0096 127.674 45.8928 127.765 45.8163 127.887C45.7397 128.008 45.7081 128.153 45.727 128.296C45.7459 128.438 45.8141 128.57 45.9198 128.667C46.0254 128.765 46.1619 128.822 46.3055 128.83C49.7703 128.901 50.4175 129.078 51.4498 132.447C51.5947 132.918 52.7091 133.598 52.4481 131.369C52.007 127.598 49.3722 126.642 46.1463 127.629Z" fill="#186CA8"/>
<path d="M89.8115 122.866C87.2433 124.813 74.098 134.654 67.3316 139.029C64.0756 141.136 60.5913 143.508 61.232 137.424C66.6895 85.651 62.5892 87.7495 77.3527 77.6671C91.1426 68.2515 105.053 58.956 118.755 49.376C127.44 43.3025 125.749 49.8901 125.064 55.1649C123.625 66.26 122.2 77.3526 120.788 88.4424C120.767 88.5301 120.763 88.6212 120.778 88.7103C120.792 88.7994 120.825 88.8846 120.873 88.9607C120.922 89.0368 120.985 89.1023 121.06 89.153C121.135 89.2038 121.219 89.2389 121.308 89.2561C121.396 89.2733 121.487 89.2722 121.576 89.2531C121.664 89.2339 121.747 89.197 121.821 89.1445C121.894 89.0921 121.956 89.0253 122.003 88.9481C122.05 88.8709 122.081 88.785 122.093 88.6956C123.434 77.4609 125.108 66.3801 126.53 55.1662C127.55 47.164 127.525 41.6334 117.775 48.4011C104.648 57.5218 91.3606 66.4245 78.1553 75.429C66.392 83.4534 64.9461 85.1669 63.7572 96.309C62.3034 109.95 60.8131 123.975 59.8866 137.619C59.452 143.979 62.9024 143.63 67.389 140.68C75.3495 135.451 83.1156 129.755 90.6807 124.039C90.7578 123.982 90.8229 123.91 90.8723 123.828C90.9217 123.746 90.9545 123.655 90.9686 123.56C90.9828 123.465 90.9782 123.368 90.955 123.275C90.9317 123.182 90.8904 123.094 90.8333 123.017C90.7763 122.94 90.7046 122.875 90.6224 122.825C90.5401 122.776 90.449 122.743 90.3541 122.729C90.2592 122.715 90.1624 122.72 90.0693 122.743C89.9763 122.766 89.8887 122.809 89.8115 122.866Z" fill="#186CA8"/>
<path d="M54.9523 122.179C53.6473 121.941 53.2362 122.889 54.5112 123.484C55.6518 124.014 57.0377 124.12 57.9473 126.559C58.2004 127.239 59.294 127.202 59.0682 125.951C58.7792 125.013 58.2455 124.169 57.522 123.507C56.7986 122.844 55.9116 122.386 54.9523 122.179Z" fill="#186CA8"/>
<path d="M52.1087 114.951C51.7029 115.429 52.2392 116.239 52.8317 115.855C53.2519 115.58 58.8582 111.447 60.5742 109.742C61.5426 108.778 60.4503 108.453 59.5537 108.974C56.8921 110.731 54.3997 112.732 52.1087 114.951Z" fill="#186CA8"/>
<path d="M222.726 126.781C221.39 127.941 220.003 129.035 218.565 130.066C217.13 131.093 215.564 132.539 213.768 131.762C211.332 130.718 207.357 127.647 204.139 126.234C203.486 125.946 203.118 126.906 203.617 127.298C205.262 128.59 209.517 131.033 211.721 132.362C214.942 134.306 215.852 133.798 218.956 131.639C220.618 130.49 222.213 129.246 223.732 127.912C223.864 127.774 223.939 127.592 223.943 127.401C223.946 127.21 223.878 127.025 223.751 126.882C223.624 126.74 223.448 126.65 223.258 126.631C223.068 126.613 222.878 126.666 222.726 126.781Z" fill="#186CA8"/>
<path d="M207.799 109.235C208.685 109.55 209.244 108.222 208.356 107.89C206.299 107.089 204.291 106.166 202.344 105.126C201.727 104.805 201.17 105.778 201.736 106.181C203.608 107.472 205.648 108.499 207.799 109.235Z" fill="#186CA8"/>
<path d="M212.798 120.341C209.177 122.559 210.02 126.008 211.077 126.628C211.756 127.028 212.352 126.628 211.8 125.529C211.011 123.949 212.77 122.1 213.515 121.31C213.983 120.816 213.391 119.978 212.798 120.341Z" fill="#186CA8"/>
<path d="M147.268 88.3485C147.434 89.0727 148.573 88.9501 148.442 88.1893C146.337 76.302 144.734 66.8316 143.5 54.9117C143.131 51.3308 143.332 47.9417 147.922 50.7005C162.385 59.397 176.59 68.1484 190.676 77.3708C196.649 81.2858 196.721 82.7539 197.419 89.9092C198.855 104.678 200.551 119.663 201.912 134.393C202.266 138.228 203.361 141.106 198.295 138.351C195.206 136.671 190.546 133.385 188.961 132.337C188.237 131.86 187.599 132.769 188.288 133.344C191.337 135.845 194.634 138.027 198.128 139.855C204.246 143.118 203.901 139.061 203.417 134.401C201.86 119.407 200.384 104.4 198.882 89.4029C198.151 82.0805 196.913 79.6154 191.3 75.9444C177.272 66.7703 162.874 57.7658 148.365 49.3472C143.902 46.7568 141.579 48.9949 141.927 53.689C142.828 65.3605 144.614 76.9469 147.268 88.3485Z" fill="#186CA8"/>
<path d="M210.853 118.64C210.992 118.583 211.107 118.477 211.175 118.342C211.242 118.207 211.26 118.052 211.223 117.905C211.186 117.759 211.097 117.63 210.974 117.544C210.85 117.457 210.699 117.418 210.549 117.433C208.009 117.433 204.95 120.253 205.896 123.221C206.245 124.313 207.74 124.85 207.213 122.99C206.568 120.713 208.92 119.263 210.853 118.64Z" fill="#186CA8"/>
<path d="M214.564 111.652C211.338 110.543 206.139 110.048 203.668 113.257C202.885 114.271 203.936 114.562 204.514 114.083C207.276 111.759 209.501 112.126 214.217 112.759C214.905 112.851 215.215 111.875 214.564 111.652Z" fill="#186CA8"/>
<path d="M210.447 114.039C208.046 113.823 205.227 114.266 203.747 117.252C203.416 117.925 204.364 118.404 204.791 117.866C206.456 115.797 207.686 115.64 210.435 115.443C211.143 115.392 211.149 114.103 210.447 114.039Z" fill="#186CA8"/>
<path d="M217.205 44.1887C202.85 45.1022 205.46 59.4989 206.873 60.9174C210.988 65.0282 226.107 63.7402 229.18 57.531C229.81 56.2573 229.715 43.3939 217.205 44.1887ZM215.238 60.1932C214.764 60.6538 209.806 60.1932 209.138 59.3397C208.756 58.8529 208.762 55.396 211.504 55.2942C214.246 55.1924 215.799 59.6477 215.238 60.1932Z" fill="#186CA8"/>
<path d="M51.3348 145.911C50.7045 145.911 50.4996 145.313 51.1534 145.188C53.8344 144.695 56.6029 145.072 59.0538 146.266C56.2872 140.555 35.8731 139.796 37.1599 147.814C37.7771 151.655 43.6 153.435 48.5342 153.295C53.2087 153.164 59.1413 152.05 59.3435 147.918C58.785 147.922 56.376 145.872 51.3348 145.911Z" fill="#186CA8"/>
<path d="M201.534 159.159C200.03 157.83 198.246 156.857 196.314 156.311C194.383 155.765 192.353 155.661 190.376 156.005C191.476 156.25 195.173 158.282 194.328 158.986C193.675 159.527 192.88 157.3 188.336 157.097C186.816 158.761 187.309 161.966 189.421 164.73C192.468 168.717 198.149 171.499 202.308 169.758C206.875 167.847 205.166 162.393 201.534 159.159Z" fill="#186CA8"/>
<path d="M101.399 131.252C103.892 131.41 106.393 131.41 108.887 131.252C109.085 131.243 109.272 131.159 109.409 131.016C109.546 130.873 109.622 130.683 109.622 130.485C109.622 130.287 109.546 130.097 109.409 129.954C109.272 129.811 109.085 129.726 108.887 129.718C106.334 129.727 103.784 129.867 101.246 130.137C100.586 130.214 100.788 131.21 101.399 131.252Z" fill="#186CA8"/>
<path d="M183.293 141.65C184.299 141.641 184.154 140.138 183.206 140.13C175.115 140.067 161.725 140.181 154.156 140.13C153.373 140.13 153.469 141.304 154.221 141.324C162.505 141.475 174.762 141.723 183.293 141.65Z" fill="#186CA8"/>
<path d="M102.119 124.799C104.285 124.981 106.459 125.026 108.631 124.936C109.936 124.868 110 123.475 108.71 123.402C106.54 123.277 104.363 123.321 102.198 123.533C102.049 123.55 101.91 123.62 101.806 123.73C101.702 123.839 101.64 123.982 101.631 124.132C101.621 124.283 101.665 124.432 101.754 124.554C101.843 124.676 101.972 124.762 102.119 124.799Z" fill="#186CA8"/>
<path d="M188.293 144.03C187.218 129.704 185.382 115.329 183.366 101.102C182.118 92.2988 178.301 89.8454 169.533 90.0464C148.261 90.5344 126.432 90.5266 105.137 91.1752C97.177 91.4179 94.6766 95.821 93.9875 102.593C92.3915 118.301 91.1009 134.435 90.6311 150.173C90.5241 153.747 91.0004 156.686 95.1986 157.163C98.7221 157.562 106.356 157.424 108.771 157.437C109.791 157.437 109.632 155.871 108.619 155.86C104.502 155.805 99.4842 156.039 95.4935 155.65C92.3028 155.338 92.1906 152.649 92.2454 150.169C92.5912 134.526 94.1402 118.426 95.3708 102.813C95.8459 96.7854 97.9613 92.8495 104.574 92.6342C126.042 91.9321 148.796 92.1396 170.359 91.5341C177.71 91.3279 180.799 93.7852 181.826 101.085C183.826 115.361 185.636 129.52 186.674 143.912C186.943 147.637 187.196 152.613 182.607 153.839C179.637 154.632 174.36 154.537 167.291 154.562C166.262 154.562 166.458 156.009 167.485 156.009C172 156.009 179.331 156.176 182.138 155.654C187.953 154.573 188.668 149.031 188.293 144.03Z" fill="#186CA8"/>
<path d="M111.358 103.215C111.47 103.16 111.562 103.074 111.626 102.967C111.689 102.861 111.721 102.738 111.716 102.614C111.712 102.49 111.671 102.37 111.6 102.268C111.529 102.167 111.43 102.088 111.315 102.041C108.832 101.92 106.344 101.985 103.87 102.236C103.731 102.268 103.607 102.347 103.52 102.46C103.432 102.573 103.387 102.713 103.391 102.856C103.395 102.999 103.449 103.135 103.543 103.243C103.637 103.35 103.766 103.422 103.907 103.445C106.393 103.559 108.884 103.482 111.358 103.215Z" fill="#186CA8"/>
<path d="M102.561 117.244C104.948 117.244 107.338 117.22 109.723 117.113C109.819 117.108 109.912 117.083 109.998 117.041C110.083 116.999 110.16 116.941 110.223 116.869C110.286 116.797 110.334 116.714 110.365 116.623C110.395 116.533 110.407 116.437 110.4 116.342C110.387 116.151 110.299 115.972 110.154 115.845C110.01 115.719 109.821 115.654 109.629 115.666C107.301 115.789 104.97 115.803 102.647 115.97C102.507 116.002 102.381 116.077 102.287 116.186C102.194 116.295 102.138 116.432 102.128 116.575C102.119 116.718 102.156 116.861 102.234 116.981C102.312 117.102 102.427 117.194 102.561 117.244Z" fill="#186CA8"/>
<path d="M103.335 109.741C105.369 109.752 107.402 109.741 109.435 109.741C111.041 109.741 110.672 108.713 110.39 108.497C109.826 108.067 104.349 108.461 103.343 108.57C102.692 108.64 102.641 109.738 103.335 109.741Z" fill="#186CA8"/>
<path d="M125.982 140.442C117.466 140.442 102.741 140.395 94.5317 140.442C93.8075 140.442 93.6848 141.764 94.4743 141.787C102.788 142.039 117.561 141.822 125.955 141.787C126.785 141.783 126.846 140.442 125.982 140.442Z" fill="#186CA8"/>
</svg>
