<svg width="265" height="265" viewBox="0 0 265 265" fill="none" xmlns="http://www.w3.org/2000/svg">
<path d="M55.4117 130.91C52.5099 134.434 41.2077 139.019 35.4572 149.592C34.8874 150.639 30.5414 158.907 33.8274 166.274C39.1407 178.186 60.4997 179.021 62.2354 175.589C62.5137 175.059 62.1824 174.648 62.5004 172.965C62.5799 172.528 63.4412 168.156 65.3889 167.851C66.9259 167.612 69.5759 170.05 70.1854 170.991C72.0404 173.8 70.4769 175.655 72.0669 176.622C73.3787 177.431 75.0482 176.914 75.8829 176.649C80.7192 175.152 85.6482 169.401 86.7479 160.563C87.5297 154.256 82.6802 140.768 78.7582 136.183C76.4924 133.547 73.6039 133.653 71.2322 131.042C70.0397 129.731 70.2782 128.26 70.2517 127.809C70.0529 124.497 71.7489 121.29 72.3319 119.064C74.0412 112.572 73.2594 105.059 71.4177 102.568C68.8074 99.0304 61.2152 102.184 58.5784 105.973C56.8294 108.491 57.5184 110.73 57.2667 116.984C57.0812 121.476 58.1014 127.624 55.4117 130.883V130.91Z" fill="white"/>
<path d="M190.323 110.054C188.906 112.267 189.409 116.891 190.005 119.184C191.079 123.278 192.828 128.22 197.121 127.531C197.478 127.478 198.711 130.565 197.24 132.195C196.485 133.03 195.292 133.003 194.987 133.123C188.813 135.415 178.306 145.962 178.995 150.984C180.439 161.385 181.883 164.048 185.964 174.092C187.408 177.629 193.159 176.993 196.816 176.251C210.344 173.509 216.757 163.584 217.42 162.418C219.964 157.966 220.679 145.949 219.023 140.728C215.088 128.339 206.926 133.335 205.839 130.738C204.912 128.498 205.707 125.08 206.369 118.945C206.793 114.983 207.138 114.082 206.502 112.784C204.103 107.921 193.252 105.404 190.297 110.028L190.323 110.054Z" fill="white"/>
<path d="M53.6229 25.016C54.6564 35.2317 55.0407 38.9947 55.2659 41.3532C56.7764 56.8955 55.5044 77.221 57.6244 104.913C57.7304 106.278 57.9822 109.061 59.8504 111.591C60.8177 112.89 64.2362 116.865 76.8634 117.17C93.4392 117.567 99.6667 115.805 106.676 116.918C108.054 117.13 109.816 117.872 110.187 119.899C111.618 127.823 110.73 136.382 111.115 142.345C111.247 144.306 114.374 144.292 117.249 144.08C143.325 142.146 185.659 140.635 192.032 138.78C196.59 137.455 196.511 135.693 196.842 132.155C197.995 119.661 195.398 88.828 192.205 64.3022C192.138 63.7457 191.688 62.3942 189.753 62.3677C162.975 62.1027 144.531 65.0177 141.696 64.6335C141.033 64.5407 140.596 63.918 140.291 62.5665C137.972 52.6952 138.012 35.722 138.264 21.9817C138.277 21.094 138.688 18.8017 137.495 18.5367C128.644 16.6287 62.9642 22.7502 54.6697 20.2857C53.7157 19.9942 53.3579 22.2732 53.6362 25.0027L53.6229 25.016Z" fill="white"/>
<path d="M97.0169 151.169C97.0169 151.169 90.8026 158.722 86.8806 168.898C84.2704 175.668 81.6071 188.296 83.3429 192.88C83.5946 193.556 84.9991 193.384 86.3374 193.079C90.3786 192.138 95.4666 190.72 98.5539 189.647C100.382 189.011 100.952 180.902 101.098 180.372C105.099 165.691 112.215 154.747 112.215 154.747L97.0169 151.169Z" fill="white"/>
<path d="M258.375 136.647C258.481 132.341 256.944 128.154 254.082 124.947C249.219 119.912 241.335 119.7 234.352 120.389C231.318 120.694 221.566 121.33 218.028 125.265C213.55 130.221 230.722 142.888 214.305 166.817C213.219 168.407 214.12 170.064 214.994 172.343C217.339 172.051 233.889 170.302 239.811 169.958C240.527 169.918 240.527 171.044 239.811 171.11C233.995 171.693 209.35 174.834 207.216 175.046C214.981 180.359 211.072 200.472 206.819 207.998C206.66 208.263 206.302 208.356 206.037 208.197C205.825 208.065 205.719 207.813 205.772 207.574C207.905 200.618 213.073 181.591 205.308 175.35C204.407 174.622 202.566 175.311 201.439 176C199.81 178.173 199.624 192.973 199.492 194.311C199.094 198.286 181.458 198.472 175.244 199.293C176.649 207.097 190.203 214.067 204.368 214.027C216.187 214.001 228.96 213.179 237.864 205.388C239.732 203.745 242.581 201.241 242.342 194.046C241.653 173.071 258.534 152.097 258.401 136.634L258.375 136.647ZM250.782 125.12C240.076 143.63 241.044 162.299 240.487 165.519C240.381 165.877 240.01 166.089 239.639 165.983C239.414 165.916 239.242 165.744 239.175 165.519C238.566 161.981 240.699 131.917 249.948 124.47C250.146 124.258 250.478 124.245 250.703 124.444C250.888 124.616 250.928 124.908 250.782 125.133V125.12Z" fill="#3ED1E5"/>
<path d="M69.2443 195C68.0518 193.808 67.9458 183.976 67.3363 181.525C66.7268 179.074 65.998 173.866 60.3933 175.311C40.8098 180.372 11.0768 162.962 57.0013 129.757C54.8018 130.844 34.198 126.047 29.0703 125.173C23.4655 124.219 17.2248 123.371 12.521 126.551C9.11576 129.028 6.98251 132.897 6.70426 137.098C5.79001 147.684 13.4618 168.315 18.1258 176.954C26.8708 193.172 26.0625 201.599 26.7648 204.514C27.4273 207.521 29.4015 210.092 32.1443 211.483C43.738 217.273 61.4135 218.731 65.415 218.89C69.5358 219.049 83.4483 216.068 90.378 207.548C88.4303 201.917 70.1453 195.914 69.2443 195.013V195ZM27.4405 169.997C26.2348 166.619 20.8288 143.219 12.9583 130.685C12.6005 130.115 13.4618 129.558 13.899 130.141C22.4453 141.576 28.3018 166.089 28.8583 169.6C28.9378 169.997 28.686 170.382 28.2885 170.474C27.9308 170.554 27.573 170.342 27.4405 169.997ZM63.7455 178.12C61.0955 178.729 58.6973 179.537 57.4915 182.307C54.2585 189.793 57.306 205.322 57.677 208.25C57.783 209.085 56.5905 209.085 56.3388 208.436C55.1198 205.295 52.112 188.786 56.3785 181.233C47.4215 180.187 38.4115 179.087 29.534 177.444C28.951 177.338 29.0968 176.331 29.6798 176.397C38.8753 177.444 57.2795 179.723 57.3193 179.723C59.055 178.146 61.2943 177.258 63.6395 177.232C64.1828 177.166 64.2623 178.014 63.7588 178.133L63.7455 178.12Z" fill="#3ED1E5"/>
<path d="M194.642 116.017C194.735 116.666 195.013 117.289 195.437 117.792C195.676 117.925 195.967 117.845 196.113 117.62C196.179 117.514 196.192 117.382 196.166 117.249C196.007 116.759 195.808 116.269 195.583 115.805C195.318 115.262 194.708 115.553 194.642 116.017Z" fill="#333333"/>
<path d="M194.099 114.321C194.881 113.99 195.755 113.95 196.55 114.215C196.789 114.281 197.041 114.135 197.107 113.884C197.147 113.725 197.107 113.566 196.988 113.46C195.981 112.704 194.603 112.704 193.596 113.46C193.37 113.619 193.317 113.937 193.476 114.162C193.622 114.361 193.887 114.427 194.099 114.321Z" fill="#333333"/>
<path d="M192.403 117.753C192.403 119.237 192.787 120.707 193.49 122.019C193.688 122.403 194.073 122.668 194.497 122.708C195 122.708 195.358 122.205 195.835 122.205C196.073 122.191 196.246 121.979 196.219 121.754C196.219 121.635 196.153 121.516 196.047 121.449C195.292 120.866 194.642 122.032 194.205 121.489C193.556 120.35 193.172 119.078 193.079 117.766C193.013 117.329 192.363 117.289 192.39 117.766L192.403 117.753Z" fill="#333333"/>
<path d="M196.166 124.656C196.921 124.948 199.492 124.179 198.988 122.085C198.882 121.728 198.154 121.834 198.193 122.191C198.313 123.039 197.716 123.821 196.881 123.94C196.722 123.967 196.55 123.954 196.391 123.94C196.193 123.874 195.98 123.98 195.914 124.179C195.848 124.378 195.954 124.59 196.153 124.656C196.153 124.656 196.153 124.656 196.166 124.656Z" fill="#333333"/>
<path d="M187.13 143.153C183.261 150.97 182.717 160.987 186.732 168.911C187.063 169.56 188.216 169.123 187.964 168.407C186.348 164.446 185.447 160.219 185.288 155.939C185.235 151.646 186.083 147.38 187.779 143.444C187.951 143.047 187.302 142.795 187.13 143.153Z" fill="#333333"/>
<path d="M199.624 177.046C199.624 176.901 199.306 176.106 199.081 176.106C196.55 176.318 188.852 176.715 186.586 176.967C186.295 175.92 182.24 158.907 180.915 154.747C180.703 154.058 179.458 154.137 179.537 154.932C179.988 159.305 185.023 177.908 185.897 179.431C176.039 179.219 166.102 179.246 156.231 179.392C156.231 179.325 150.347 162.776 146.942 154.786C146.942 154.786 173.495 154.919 178.875 155.369C179.736 155.436 179.736 154.044 178.875 154.031C173.561 153.952 152.361 153.673 147.114 153.952C146.916 153.978 146.743 154.111 146.677 154.309C146.386 154.097 145.842 154.389 145.988 154.786C154.627 178.067 154.866 180.425 155.78 180.438C180.531 180.743 186.069 181.167 196.1 180.001C198.524 179.723 200.366 180.041 199.611 177.033L199.624 177.046ZM198.326 178.345C198.14 178.491 188.892 179.206 186.944 179.498C186.944 179.1 186.904 178.663 186.878 178.265C189.302 178.053 198.074 177.404 198.366 177.404C198.405 177.762 198.445 178.265 198.326 178.345Z" fill="#333333"/>
<path d="M164.008 162.63C162.855 162.418 161.742 163.187 161.53 164.34C161.53 164.379 161.517 164.419 161.517 164.472C161.557 165.651 162.418 166.632 163.584 166.817C164.816 167.029 165.996 166.195 166.208 164.962C166.208 164.923 166.221 164.87 166.221 164.83C166.221 162.948 164.021 162.63 164.021 162.63H164.008Z" fill="#333333"/>
<path d="M103.416 166.897C104.33 167.506 108.239 168.699 108.372 166.287C108.372 165.956 108.107 165.691 107.775 165.691C107.563 165.691 107.365 165.81 107.259 165.996C106.662 166.923 104.688 166.155 103.787 165.996C103.522 165.93 103.257 166.089 103.191 166.354C103.138 166.566 103.231 166.791 103.429 166.897H103.416Z" fill="#333333"/>
<path d="M106.848 168.407C106.596 168.169 106.198 168.169 105.96 168.407C105.933 168.434 105.907 168.474 105.88 168.513C105.456 169.56 103.389 168.805 102.806 168.593C102.263 168.381 101.932 169.242 102.409 169.534C103.336 170.183 104.449 170.514 105.589 170.474C105.549 170.514 105.523 173.601 102.157 171.998C101.548 171.707 100.819 172.329 101.362 172.793C102.091 173.416 103.045 173.721 103.999 173.628C104.211 175.761 101.402 174.781 100.885 174.754C100.342 174.714 100.196 175.655 100.739 175.735C101.932 175.907 105.576 177.033 105.324 173.098C106.079 172.555 107.099 171.044 106.159 170.355C106.993 170.024 107.537 169.149 106.848 168.434V168.407Z" fill="#333333"/>
<path d="M112.704 153.806C107.431 152.931 102.303 151.381 97.0561 150.374C96.6586 150.295 96.3273 150.772 96.5128 151.063C86.1381 161.941 80.3876 178.398 82.9581 193.304C83.0243 193.702 83.5411 193.702 83.7531 193.49C86.2441 193.423 96.8308 190.402 99.6133 189.766C99.9313 189.687 100.143 189.395 100.117 189.077C100.501 185.222 101.482 181.445 103.005 177.881C103.217 177.378 102.383 177.046 102.144 177.523C100.355 180.955 99.2026 184.665 98.7521 188.508C96.1153 189.091 85.9261 191.184 83.7531 192.191C83.0376 177.232 90.3648 158.987 97.8113 151.726C102.21 153.289 106.742 154.429 111.353 155.118C110.346 155.913 107.179 161.398 106.98 163.213C106.901 163.929 107.908 163.929 108.133 163.359C108.756 161.796 112.943 155.051 112.943 154.972C113.34 154.614 113.34 153.925 112.691 153.819L112.704 153.806Z" fill="#333333"/>
<path d="M160.749 217.658C157.105 222.441 150.202 232.392 150.162 232.471C148.135 231.557 147.472 231.888 145.392 230.272C145.392 230.232 155.568 199.757 158.324 193.847C158.549 193.384 157.847 192.946 157.608 193.41C154.64 199.081 144.716 226.615 144.173 229.861C144.093 230.192 144.292 230.523 144.61 230.616C144.544 231.623 148.625 233.359 149.592 233.584C149.579 235.134 149.672 236.671 149.884 238.208C148.373 238.314 131.426 240.633 130.154 240.448C135.256 238.473 139.92 235.519 143.881 231.742C144.279 231.371 143.696 230.802 143.298 231.16C138.846 235.174 133.573 238.169 127.836 239.944C127.372 240.09 127.16 240.872 127.69 241.097C131.002 242.515 148.691 240.09 150.52 239.176C150.745 238.99 150.917 238.752 151.023 238.487C151.063 236.857 150.904 235.24 150.546 233.65C150.732 233.611 158.099 223.064 161.491 218.148C161.928 217.644 161.093 217.181 160.735 217.644L160.749 217.658Z" fill="#333333"/>
<path d="M197.425 195.795C194.284 196.961 178.822 198.246 175.165 198.684C175.059 198.14 174.939 197.597 174.847 197.054C174.741 196.484 173.879 196.723 173.985 197.306C176.198 209.509 177.629 221.725 178.901 234.048C177.96 235.85 173.402 235.704 172.395 235.744C172.395 235.598 164.949 216.783 162.537 207.018C161.451 202.606 160.205 197.809 161.345 193.251C162.617 188.163 167.294 184.639 172.038 182.996C172.475 182.85 172.289 182.134 171.852 182.28C167.374 183.764 162.789 186.361 160.762 190.84C158.854 195.066 159.397 199.903 160.325 204.315C162.617 215.18 171.017 236.075 171.017 236.115C167.533 238.46 163.77 240.381 159.821 241.826C159.463 241.945 159.265 242.329 159.384 242.687C159.477 242.952 159.715 243.151 160.007 243.164C166.791 244.052 173.681 243.495 180.239 241.534C180.544 241.468 180.756 241.19 180.743 240.885C181.644 238.712 181.458 236.247 180.239 234.233C180.239 234.167 177.709 211.006 175.43 199.664C179.405 199.479 195.053 198.617 197.941 196.842C198.458 196.471 198.021 195.57 197.438 195.782L197.425 195.795ZM162.71 242.011C165.969 240.673 169.017 238.884 171.773 236.698C173.946 237.201 177.735 237.347 179.14 235.36C179.895 236.817 180.12 238.487 179.749 240.09C174.211 241.693 168.447 242.342 162.696 241.998L162.71 242.011Z" fill="#333333"/>
<path d="M211.006 217.26C209.641 220.334 204.434 237.095 204.354 237.241C204.354 236.34 204.712 222.719 205.004 216.823C205.03 216.174 204.076 216.213 204.023 216.823C203.546 223.66 203.135 230.51 202.764 237.374C202.738 237.917 202.234 242.091 204.142 241.163C204.646 240.911 211.549 221.699 212.092 217.711C212.172 217.101 211.297 216.598 211.006 217.247V217.26Z" fill="#333333"/>
<path d="M240.819 209.416C240.501 208.833 239.586 209.31 239.812 209.853C241.865 214.955 243.787 228.165 244.078 231.464C243.866 231.067 236.671 216.611 234.79 212.715C234.565 212.252 233.823 212.57 233.955 213.073C235.36 218.36 243.667 234.154 244.688 234.816C245.085 235.042 245.589 234.896 245.814 234.512C245.88 234.392 245.92 234.273 245.92 234.141C245.628 229.914 243.151 213.669 240.819 209.429V209.416Z" fill="#333333"/>
<path d="M111.803 141.497C125.928 141.43 148.387 139.112 181.207 138.86C181.604 138.847 181.922 138.502 181.896 138.105C181.883 137.734 181.578 137.429 181.207 137.416C168.315 137.8 127.2 138.78 111.803 140.635C111.565 140.635 111.366 140.834 111.366 141.073C111.366 141.311 111.565 141.51 111.803 141.51V141.497Z" fill="#333333"/>
<path d="M184.678 122.814C164.366 124.709 143.961 125.451 123.583 125.385C122.311 108.438 120.959 91.5309 119.793 74.5842C119.753 74.0807 118.972 74.0807 118.998 74.5842C120.032 91.5177 120.88 108.478 122.39 125.385C120.84 125.385 119.316 125.371 117.766 125.345C117.514 125.358 117.329 125.57 117.342 125.822C117.342 126.047 117.541 126.233 117.766 126.246C119.316 126.286 120.906 126.352 122.456 126.431C122.562 127.77 122.695 129.068 122.814 130.406C122.88 131.135 123.993 131.135 123.94 130.406C123.821 129.108 123.755 127.77 123.649 126.471C144.014 126.895 164.393 126.1 184.665 124.086C185.46 124.007 185.46 122.748 184.665 122.827L184.678 122.814Z" fill="#333333"/>
<path d="M130.194 119.489C130.26 113.844 129.797 108.213 128.79 102.648C131.996 102.608 135.176 102.144 138.25 101.27C138.118 107.511 138.74 113.751 140.132 119.833C137.058 120.045 133.334 120.231 130.274 120.443C130.088 120.482 130.207 119.462 130.207 119.462L130.194 119.489Z" fill="#3ED1E5"/>
<path d="M144.637 93.8762C144.491 93.6642 151.832 93.916 155.369 93.2932C156.416 101.985 156.933 110.73 156.92 119.488C153.74 119.634 149.659 119.568 146.479 119.488C144.928 112.956 144.637 93.8762 144.637 93.8762Z" fill="#3ED1E5"/>
<path d="M162.166 118.839C162.339 108.61 161.968 98.3812 161.04 88.2052C164.127 88.4305 167.228 88.4569 170.328 88.2847C170.872 95.9432 171.415 116.534 171.415 118.309C168.341 118.64 165.254 118.826 162.166 118.852V118.839Z" fill="#3ED1E5"/>
<path d="M185.142 118.362C182.492 118.654 179.816 118.574 177.192 118.15C176.145 117.859 174.661 78.8772 174.953 75.8429C178.027 75.5117 181.088 75.6309 184.162 75.1539C183.446 75.2997 185.142 118.362 185.142 118.362Z" fill="#3ED1E5"/>
<path d="M140.158 17.7152C140.264 17.331 140.039 16.9335 139.655 16.8407C139.575 16.8142 139.482 16.8142 139.403 16.8142C113.168 18.497 55.1859 17.9405 52.6551 18.4042C52.2709 18.4837 51.8999 18.5765 51.5289 18.6957C51.2904 18.7752 51.1711 19.027 51.2506 19.2655C51.3301 19.4907 51.5554 19.61 51.7806 19.557C55.1726 44.8512 54.4306 70.2912 56.0736 95.6782C56.1134 96.3672 57.1601 96.3672 57.1204 95.6782C55.7159 70.3177 57.3721 44.5862 53.3309 19.4112C55.3184 19.3052 132.341 18.868 139.138 18.4307C138.701 24.6847 140.079 50.7342 140.118 57.4122C140.118 57.7965 140.436 58.1145 140.821 58.1145C141.205 58.1145 141.523 57.7965 141.523 57.4122C141.708 50.7342 140.622 24.2077 140.145 17.702L140.158 17.7152Z" fill="#333333"/>
<path d="M157.357 30.1835C157.357 30.1835 159.914 34.8077 160.06 35.0197C160.603 35.8147 165.665 35.0197 165.731 35.1257C165.797 35.2317 161.716 39.6042 161.69 39.7897C161.478 40.3727 163.783 45.4607 163.717 45.5402C163.571 45.6462 158.47 42.5722 158.112 42.612C157.132 42.7312 152.441 46.3352 152.256 46.0835C152.56 43.831 152.998 41.5917 153.594 39.4055C153.594 39.4055 150.056 36.5832 150.056 36.517C150.056 36.3712 154.323 36.0135 156.164 35.3245C156.456 35.2185 157.171 30.263 157.357 30.1967V30.1835Z" fill="#3ED1E5"/>
<path d="M175.893 29.5607C176.185 29.5607 178.199 34.768 179.511 34.6222C180.968 34.4102 182.439 34.2777 183.923 34.2247C183.989 34.9137 180.16 38.3057 180.16 38.4515C180.16 38.5575 181.79 42.2145 182.585 43.937C180.451 43.2082 176.556 41.4857 176.41 41.5122C176.264 41.5387 171.243 44.838 170.514 44.7585C170.58 43.8972 172.687 39.9222 173.084 38.6105C171.6 37.5637 170.196 36.3977 168.897 35.139C170.607 34.874 172.329 34.715 174.065 34.6752C174.555 32.9262 175.165 31.2037 175.907 29.5475L175.893 29.5607Z" fill="#3ED1E5"/>
<path d="M192.112 37.6963C191.078 36.5038 189.952 35.3908 188.746 34.3705C188.746 34.185 193.251 34.3043 193.874 33.1118C194.059 32.754 195.027 29.2163 195.133 29.1765C196.073 28.991 196.55 32.9263 197.624 33.2575C199.373 33.5623 201.161 33.6815 202.937 33.6153C203.043 33.761 200.578 35.3378 199.651 36.6495C198.723 37.9613 201.784 42.4265 201.678 42.9035C200.34 42.4398 196.511 40.6245 196.007 40.6643C194.165 40.7968 191.992 43.0095 190.906 43.301C191.158 42.0025 192.138 37.842 192.098 37.6963H192.112Z" fill="#3ED1E5"/>
<path d="M209.31 42.93C210.688 42.4265 213.577 40.0415 213.974 40.0415C214.186 40.0415 218.055 41.817 219.791 42.612C219.751 42.5723 218.638 39.1405 218.347 38.1733C217.989 36.941 221.818 32.9793 221.566 32.966C220.838 32.9528 216.69 32.8998 216.611 32.86C216.505 32.7938 214.729 27.5468 214.186 27.6263C214.12 27.6263 213.749 32.3565 211.881 33.1913C210.582 33.761 206.965 33.9068 207.044 34.1718C207.084 34.3175 210.622 36.9145 210.688 37.0603C211.364 38.3985 209.456 41.499 209.31 42.9433V42.93Z" fill="#3ED1E5"/>
<path d="M80.5066 37.3649C89.0264 37.3649 126.935 35.6822 130.949 34.9799C131.559 34.8739 131.387 33.9332 130.804 33.9332C126.643 33.9199 88.8939 36.3712 80.5066 36.5037C80.2681 36.5169 80.0826 36.7157 80.0959 36.9674C80.0959 37.1927 80.2814 37.3649 80.5066 37.3782V37.3649Z" fill="#3ED1E5"/>
<path d="M82.7193 43.5527C98.7518 44.2549 114.731 42.3469 130.698 41.1014C131.599 41.0352 131.559 39.6174 130.698 39.7234C114.771 41.5387 98.7518 42.5324 82.7193 42.7179C82.4941 42.7179 82.3086 42.9034 82.3086 43.1287C82.3086 43.3539 82.4941 43.5394 82.7193 43.5394V43.5527Z" fill="#3ED1E5"/>
<path d="M82.3218 56.1932C90.6825 55.9812 129.585 54.4972 131.307 54.2454C132.023 54.1394 131.744 53.1589 131.161 53.0927C129.359 52.8674 90.55 54.7224 82.3483 55.4379C81.8448 55.4379 81.805 56.2064 82.3085 56.1932H82.3218Z" fill="#3ED1E5"/>
<path d="M82.3219 61.215C90.5899 60.8307 123.516 60.8042 131.572 59.3335C132.327 59.201 132.009 58.0747 131.241 58.1807C122.973 59.3335 90.2984 59.3732 82.3219 60.314C81.7786 60.3802 81.7389 61.2415 82.3219 61.215Z" fill="#3ED1E5"/>
<path d="M82.3881 78.7049C97.7051 78.1087 98.8976 78.2942 102.011 77.7642C102.621 77.6582 102.449 76.7572 101.866 76.7174C98.6061 76.6114 95.3598 76.7174 92.1136 77.0089C88.8673 77.1944 85.6078 77.3799 82.4013 77.7244C81.7918 77.7907 81.7521 78.7182 82.4013 78.7049H82.3881Z" fill="#3ED1E5"/>
<path d="M83.2229 84.2964C97.4534 83.6207 99.4409 84.5084 103.416 83.7929C103.721 83.7002 103.893 83.3954 103.8 83.0907C103.747 82.9052 103.601 82.7594 103.416 82.7064C100.276 82.0837 96.7644 82.4944 93.5844 82.6004C90.1129 82.7064 86.6546 82.9979 83.2096 83.2497C82.5206 83.3027 82.5206 84.3362 83.2096 84.2964H83.2229Z" fill="#3ED1E5"/>
<path d="M74.3721 36.0002C74.2794 35.6955 73.9481 35.5365 73.6566 35.6292C73.4844 35.6822 73.3519 35.828 73.2856 36.0002C72.9941 37.5107 73.0339 43.5527 72.9279 45.0367C70.2646 45.0367 67.6146 45.209 64.9779 45.58C64.7261 42.7975 64.5406 40.0812 64.1166 37.312C65.8789 37.3517 67.6279 37.1132 69.3239 36.623C69.5756 36.5435 69.7214 36.2785 69.6419 36.0267C69.5756 35.8147 69.3901 35.6822 69.1781 35.6822C67.3364 35.5365 65.5609 36.4375 63.7191 36.2255C63.5336 36.1857 63.2554 36.6627 63.2554 36.729C63.4674 39.909 63.7986 43.1552 63.7191 46.3352C63.7191 46.693 64.0239 46.9845 64.3949 46.9712C64.4479 46.9712 64.5009 46.9712 64.5539 46.9447C67.5484 46.4545 70.5959 46.6135 73.5904 46.4015C73.9746 46.375 74.2926 46.0702 74.3059 45.6727C74.5841 42.6782 75.1671 38.9682 74.3854 35.987L74.3721 36.0002Z" fill="#333333"/>
<path d="M75.5647 31.8794C72.1064 33.7477 69.5359 36.9144 68.4494 40.6907C67.6942 39.8294 66.9389 38.9152 66.2102 38.0142C65.8524 37.5769 65.1369 38.1599 65.4549 38.5972C66.4089 39.8957 67.2967 41.2339 68.1579 42.5722C68.3699 42.9167 68.8337 43.0227 69.1782 42.8107C69.3372 42.7179 69.4432 42.5722 69.4962 42.3867C70.5562 38.4779 72.9014 35.0197 76.1477 32.5949C76.5717 32.2637 76.0284 31.6409 75.5647 31.8794Z" fill="#3ED1E5"/>
<path d="M75.0611 58.83C75.0611 58.5517 74.8358 58.3265 74.5576 58.3265C74.2793 58.3265 74.0541 58.5517 74.0541 58.83C73.7493 60.8837 73.6566 62.964 73.8023 65.0442C73.6963 65.0442 66.7268 65.7597 65.0971 65.7332C65.2693 62.8712 65.2958 59.996 65.1766 57.134C67.5351 56.9617 69.8671 56.5642 72.1461 55.9812C72.5038 55.8752 72.4773 55.2657 72.0401 55.2922C69.5093 55.4645 67.0183 55.7957 64.4876 55.9017C64.1431 55.9282 63.8648 56.2065 63.8383 56.551C63.9576 59.837 63.8913 63.1362 63.6528 66.409C63.6528 66.78 63.9576 67.098 64.3286 67.098C66.7798 67.2967 74.5973 66.8727 75.1273 65.8657C75.4453 65.2827 75.1671 60.3802 75.0611 58.8167V58.83Z" fill="#333333"/>
<path d="M74.8359 54.7887C72.9544 56.3787 70.5694 58.5782 69.6684 61.0427C68.5819 60.1019 67.5219 59.2142 66.4221 58.3264C66.2499 58.1807 65.9981 58.1939 65.8391 58.3662C65.7066 58.5252 65.7066 58.7504 65.8391 58.9094C67.0184 60.3272 68.3036 61.6124 69.5226 62.9507C69.8274 63.2422 70.3176 63.2422 70.6091 62.9374C70.6886 62.8447 70.7549 62.7519 70.7946 62.6327C71.3379 59.8502 74.0144 57.8627 75.6706 55.6632C76.1609 55.0272 75.4321 54.2984 74.8359 54.8019V54.7887Z" fill="#3ED1E5"/>
<path d="M76.6774 78.8772C76.6509 78.4135 75.9222 78.228 75.8162 78.7712C75.3657 81.1827 75.1139 83.6207 75.0609 86.072C72.2784 86.1117 69.5357 86.1515 66.7532 86.3237C66.6074 83.8327 66.7134 78.8507 66.7134 78.8507C67.1109 78.811 70.9402 78.3075 72.4639 78.1617C73.0072 78.1087 73.0072 77.3005 72.4639 77.327C70.2777 77.2607 68.0914 77.3402 65.9184 77.5787C65.6932 77.645 65.5077 77.8172 65.4547 78.0425C65.2029 81.0502 65.1897 84.0712 65.4149 87.079C65.4149 87.45 65.7197 87.7547 66.1039 87.768C69.3237 87.7282 72.5037 87.5692 75.7102 87.556C76.1077 87.5427 76.4124 87.2247 76.4257 86.8405C76.7039 84.2037 76.7834 81.5405 76.6774 78.8905V78.8772Z" fill="#333333"/>
<path d="M75.7767 75.2997C73.6037 77.3667 72.0402 79.9902 71.2585 82.892C70.3045 82.4812 69.4565 81.8982 68.7277 81.1562C68.3302 80.7587 67.5352 81.302 67.893 81.7657C68.7807 82.9847 69.9732 83.9652 71.3645 84.588C71.7355 84.8 72.2125 84.6542 72.4112 84.2832C72.4377 84.2302 72.4642 84.1772 72.4775 84.1242C73.458 81.2357 74.8492 78.493 76.5982 75.9887C76.9957 75.4455 76.2272 74.9022 75.7635 75.2997H75.7767Z" fill="#3ED1E5"/>
<path d="M193.887 60.5657C193.821 60.2477 193.052 60.1682 192.986 60.1682C190.681 60.1682 111.114 63.017 107.51 63.017C107.219 63.017 106.795 63.7722 106.821 64.024C107.921 71.8945 110.227 134.474 110.505 139.642C110.545 140.331 111.578 140.331 111.552 139.642C110.743 117.753 108.875 67.31 108.266 64.0637C116.799 64.5672 190.535 62.01 192.986 61.533C193.423 67.31 194.139 93.6112 195.04 96.3937C195.265 97.0827 196.418 97.0032 196.338 96.2082C196.047 93.0282 195.106 66.3162 193.887 60.5525V60.5657Z" fill="#333333"/>
<path d="M108.875 113.605C103.535 113.049 81.6332 113.831 76.2537 114.467C76.002 114.467 75.8032 114.665 75.8032 114.917C75.8032 115.169 76.002 115.368 76.2537 115.368C81.673 115.368 103.509 115.142 108.875 114.652C109.167 114.612 109.365 114.334 109.326 114.043C109.286 113.817 109.114 113.632 108.875 113.592V113.605Z" fill="#333333"/>
<path d="M227.595 141.921C224.892 135.852 219.049 133.242 216.796 125.226C214.888 118.468 215.273 111.035 211.046 105.099C207.455 100.051 201.002 96.725 194.788 98.739C186.785 101.323 185.063 111.008 189.038 113.221C189.038 113.221 189.183 113.513 189.25 113.552C189.144 132.632 203.878 129.77 202.685 123.013C202.579 122.403 201.546 122.536 201.559 123.159C201.678 125.08 200.221 126.736 198.313 126.882C196.285 127.094 194.311 126.166 193.185 124.457C191.462 122.112 190.495 119.276 190.442 116.361C190.588 116.361 190.747 116.322 190.879 116.255C191.091 116.136 191.158 115.858 191.038 115.646C190.999 115.58 190.946 115.527 190.879 115.487C190.707 115.421 190.522 115.381 190.336 115.381C190.27 114.52 190.151 113.605 190.045 112.704C190.045 112.585 189.965 112.479 189.859 112.413C190.296 110.77 191.979 109.789 193.609 110.227C193.675 110.24 193.728 110.266 193.794 110.28C196.935 111.035 197.279 114.891 202.5 114.467C202.831 114.453 203.109 114.188 203.149 113.857C203.679 113.46 204.381 113.407 204.951 113.711C205.534 114.109 205.905 114.771 205.931 115.487C206.077 117.368 203.003 119.422 203.109 119.608C204.633 122.218 205.454 130.552 205.454 131.533C205.203 133.666 202.46 135.799 201.665 136.157C200.472 136.674 197.372 136.594 197.69 134.461C198.432 132.513 198.525 130.393 197.942 128.392C197.836 127.995 196.974 127.995 197.107 128.498C197.412 129.704 197.451 130.963 197.213 132.182C186.268 132.685 179.14 146.585 177.696 151.434C177.47 152.189 178.663 152.733 178.994 151.977C180.929 147.525 187.302 134.925 196.988 133.374C195.398 137.495 200.168 138.065 202.115 137.27C203.917 136.356 205.335 134.845 206.157 133.003C212.662 130.3 216.955 137.879 218.148 140.622C224.919 156.072 212.477 167.864 207.203 170.607C204.355 172.091 195.318 174.502 193.874 174.794C190.76 175.443 190.866 171.68 192.615 170.925C200.671 168.328 206.66 157.9 204.182 149.791C204.09 149.46 203.745 149.261 203.414 149.354C203.136 149.433 202.95 149.685 202.95 149.977C203.825 158.231 199.532 166.181 192.151 169.997C191.33 170.196 190.641 170.766 190.31 171.548C188.786 171.799 186.997 172.661 186.666 174.29C186.6 174.582 186.772 174.887 187.077 174.953C187.249 174.993 187.434 174.953 187.58 174.834C188.084 174.37 188.269 173.283 190.031 172.661C189.992 173.164 190.031 173.654 190.177 174.145C190.813 176.49 192.787 176.583 194.762 176.092C211.006 172.131 213.192 168.5 213.404 168.328C213.365 169.057 213.404 169.799 213.471 170.527C213.471 170.779 213.669 170.978 213.921 170.978C214.173 170.978 214.372 170.779 214.372 170.527C214.491 169.467 214.504 168.407 214.411 167.347C218.241 163.584 222.176 156.655 222.004 152.07C225.7 153.369 230.682 148.864 227.569 141.881L227.595 141.921Z" fill="#333333"/>
<path d="M65.9448 167.255C61.3205 167.838 52.178 168.911 51.7143 162.193C51.5288 159.556 55.1195 150.997 57.7828 148.532C58.008 148.294 58.008 147.91 57.7695 147.684C57.584 147.499 57.2925 147.459 57.0673 147.592C53.5295 149.473 49.6738 160.312 50.3495 163.452C51.542 169.096 58.485 169.52 63.6128 168.725C62.1155 170.408 61.4133 172.634 61.665 174.873C55.1593 174.873 48.733 174.807 42.373 173.177C35.5758 171.442 32.6343 165.015 33.8798 158.443C35.6023 149.314 44.4003 138.86 56.7095 131.347C56.6698 131.599 56.6698 131.89 56.63 132.142C56.5903 132.685 57.531 132.831 57.6105 132.288C58.4188 127.664 58.7235 122.96 58.5115 118.269C58.4983 117.912 58.1935 117.633 57.8358 117.647C57.5045 117.66 57.2263 117.925 57.213 118.269C56.9348 122.138 57.0275 126.007 56.7758 129.903C51.9263 132.712 47.3948 136.051 43.3005 139.88C39.4448 143.299 36.3443 147.459 34.158 152.123C29.7325 162.1 31.9585 172.541 42.5718 174.993C49.0113 176.583 55.6893 177.086 62.301 176.477C63.3875 176.477 63.4273 175.39 62.9503 175.099C62.7648 172.343 64.0898 169.719 66.4218 168.235C66.6338 167.997 66.6073 167.612 66.3688 167.4C66.2495 167.294 66.1038 167.255 65.958 167.255H65.9448Z" fill="#333333"/>
<path d="M73.7229 176.967C79.8179 177.325 79.7914 169.057 79.8709 164.976C79.9371 161.478 79.5131 147.751 78.8241 144.531C78.7049 143.988 77.8171 144.134 77.8436 144.677C78.3339 152.481 78.4134 167.003 78.1749 169.719C77.9099 172.608 76.7704 175.536 73.5904 176.079C73.0869 176.106 73.2326 176.941 73.7361 176.98L73.7229 176.967Z" fill="#333333"/>
<path d="M103.668 183.433C116.428 192.801 111.724 201.837 109.776 205.799C109.591 206.17 109.736 206.62 110.107 206.819C110.452 206.991 110.863 206.885 111.075 206.567C113.817 202.95 118.972 190.376 104.277 182.651C103.774 182.386 103.191 183.088 103.668 183.446V183.433Z" fill="#333333"/>
<path d="M97.2812 221.09C92.8159 225.263 82.9314 232.577 82.9049 232.617C81.2354 232.153 80.0297 230.696 79.9104 228.96C81.3547 226.655 87.3834 217.327 88.4037 214.796C88.6157 214.253 87.8604 214.001 87.5424 214.292C85.4622 216.121 79.5792 226.456 78.5854 229.146C78.5854 230.497 79.1684 231.782 80.1754 232.683C81.0234 233.571 82.2424 233.995 83.4614 233.836C88.5759 230.139 93.452 226.124 98.063 221.805C98.5002 221.341 97.7715 220.639 97.3077 221.076L97.2812 221.09Z" fill="#333333"/>
<path d="M93.1605 242.978C91.756 241.746 86.7872 237.519 85.396 234.485C85.2105 234.194 84.8262 234.088 84.5215 234.273C84.2962 234.419 84.177 234.684 84.23 234.949C84.8527 237.334 92.7895 244.701 93.187 245.35C93.6242 246.066 93.77 246.264 93.1472 246.543C92.7232 246.728 83.8855 245.178 77.711 239.321C76.0547 237.771 75.7367 235.267 76.9557 233.359C77.5387 232.67 78.5457 232.06 78.294 231.014C78.2542 230.828 78.082 230.709 77.8965 230.749C77.8567 230.749 77.817 230.775 77.7772 230.788C76.651 231.597 75.7235 232.657 75.1007 233.902C72.199 241.203 90.2322 248.504 93.8892 248.172C96.7777 247.907 94.141 243.866 93.134 242.965L93.1605 242.978Z" fill="#333333"/>
<path d="M116.388 231.159C115.778 227.277 105.735 201.519 98.3278 192.072C97.9303 191.568 97.1353 192.045 97.493 192.575C105.337 204.129 113.433 227.476 114.798 230.908C114.4 233.187 111.551 233.796 110.491 233.876C108.941 229.251 96.698 200.327 69.3368 194.642C69.0983 194.589 68.873 194.748 68.8333 194.974C68.7935 195.186 68.9128 195.398 69.1248 195.464C98.2085 205.282 107.921 232.312 109.259 234.406C109.339 234.538 109.445 234.657 109.59 234.724C110.995 235.121 114.572 234.406 115.765 232.047C116.149 231.915 116.401 231.544 116.374 231.146L116.388 231.159Z" fill="#333333"/>
<path d="M129.678 230.484C125.12 230.258 120.562 230.762 116.163 231.968C115.474 232.153 115.58 233.332 116.348 233.226C120.35 232.551 124.391 232.113 128.459 231.928C124.417 237.824 116.825 240.05 113.937 241.388C111.949 240.063 110.531 238.063 109.922 235.757C109.816 235.28 108.915 235.293 108.981 235.903C109.273 238.354 110.717 241.68 113.248 242.581C114.149 243.031 125.729 240.063 130.34 231.636C130.539 231.252 130.38 230.762 129.996 230.563C129.903 230.51 129.797 230.484 129.691 230.484H129.678Z" fill="#333333"/>
<path d="M31.919 216.571C31.3493 219.711 24.3665 237.89 23.9028 238.752C23.9425 237.493 26.3408 218.015 28.0235 212.344C28.209 211.735 27.308 211.483 27.043 212.093C24.5123 218.174 22.1405 238.725 22.4188 240.713C22.4453 241.137 22.7898 241.481 23.2138 241.508C24.552 241.68 25.4133 239.374 25.8108 238.473C28.8053 231.888 32.29 219.513 33.2573 217.406C33.6945 216.465 32.1045 215.564 31.919 216.571Z" fill="#333333"/>
<path d="M64.7923 220.467C64.7791 220.043 64.4213 219.725 63.9973 219.738C63.5998 219.751 63.2818 220.069 63.2686 220.467C63.2288 229.251 63.5336 242.091 63.1228 244.343C61.9303 243.336 56.8821 225.952 55.6101 222.123C55.5306 221.884 55.2788 221.765 55.0403 221.845C54.8151 221.924 54.6958 222.149 54.7488 222.375C56.0208 227.025 59.7838 240.726 60.6053 242.819C62.4868 247.682 64.2226 246.039 64.3683 245.668C64.8321 244.515 65.2958 225.078 64.8056 220.453L64.7923 220.467Z" fill="#333333"/>
<path d="M67.0313 169.64C70.2775 171.004 71.5363 173.866 71.5098 177.192C71.5098 177.484 71.7483 177.709 72.0265 177.709C72.2518 177.709 72.4505 177.563 72.5168 177.338C73.2985 173.535 70.993 169.785 67.2433 168.778C66.7 168.606 66.5145 169.428 67.0313 169.64Z" fill="#333333"/>
<path d="M68.9526 173.866C69.9596 176.079 70.4101 178.517 70.2511 180.942C70.2511 181.207 70.4763 181.419 70.7413 181.419C70.9401 181.419 71.1256 181.286 71.1918 181.088C71.8941 178.438 71.4303 175.615 69.9331 173.323C69.7873 173.058 69.4428 172.952 69.1778 173.111C68.9128 173.27 68.8068 173.601 68.9658 173.866H68.9526Z" fill="#333333"/>
<path d="M67.4291 176.066C68.5156 178.226 68.7673 180.703 68.1578 183.035C68.0518 183.539 68.7806 183.95 69.0588 183.433C70.2248 180.849 69.9598 177.855 68.3698 175.523C68.2241 175.258 67.8928 175.178 67.6278 175.324C67.3628 175.47 67.2833 175.801 67.4291 176.066Z" fill="#333333"/>
<path d="M64.766 177.219C65.7863 179.312 65.561 181.591 65.7465 183.83C65.7863 184.294 66.5415 184.48 66.6475 183.936C67.2305 181.485 66.8463 178.901 65.6008 176.715C65.455 176.49 65.1635 176.41 64.9383 176.556C64.713 176.702 64.6335 176.993 64.7793 177.219H64.766Z" fill="#333333"/>
<path d="M70.6489 110.346C70.5164 110.121 70.2249 110.054 70.0129 110.187C69.8804 110.266 69.7877 110.412 69.7877 110.571C69.7877 111.432 70.0792 113.937 70.0792 114.294C69.8937 114.294 69.7082 114.228 69.5359 114.149C69.0589 113.95 68.7807 114.718 69.1782 114.983C69.9069 115.447 71.0597 115.845 71.3114 114.692C71.3379 113.221 71.1127 111.75 70.6622 110.359L70.6489 110.346Z" fill="#333333"/>
<path d="M67.5085 109.737C67.694 110.134 67.535 110.571 67.6145 111.009C67.694 111.26 67.959 111.406 68.224 111.327C68.2902 111.3 68.3565 111.274 68.4095 111.221C68.8202 110.611 68.8202 109.803 68.4095 109.193C68.3035 108.942 67.3627 108.981 67.5085 109.737Z" fill="#333333"/>
<path d="M66.9654 109.339C67.1111 109.008 67.1774 108.398 68.5554 108.186C68.8734 108.107 68.8734 107.537 68.5554 107.351C67.4291 106.808 66.2764 107.961 65.9584 108.941C65.7464 109.485 66.7136 109.922 66.9654 109.339Z" fill="#333333"/>
<path d="M87.3702 157.781C85.9524 147.525 82.7062 134.699 71.4304 131.48C70.8077 130.353 70.3969 129.108 70.2379 127.836C71.3907 127.796 76.9027 126.392 76.2004 120.933C75.8427 118.707 74.5574 116.732 72.6627 115.513C73.5769 111.777 73.3914 107.868 72.1194 104.238C72.3314 104.158 76.6377 102.86 76.5317 98.4872C76.6112 95.5192 74.2659 93.0547 71.2979 92.9752C70.1319 92.9487 68.9924 93.2932 68.0384 93.9689C66.3424 95.0554 65.3752 96.7647 63.8514 98.0499C62.3674 99.4279 60.4992 100.316 58.4984 100.62C55.2389 101.084 52.5227 103.39 51.5554 106.543C50.8929 109.127 51.4097 111.883 52.9599 114.056C53.8874 115.54 55.0534 117.196 56.7892 117.448C57.3059 117.421 57.8094 117.315 58.3129 117.156C60.2872 116.441 61.4797 119.29 61.9964 120.734C63.6129 125.226 67.5217 127.637 69.0454 127.783C68.9527 129.797 69.7344 131.758 71.1787 133.162C71.4039 133.361 71.7352 133.348 71.9339 133.123C72.0664 132.977 72.1062 132.765 72.0399 132.579C72.5037 132.765 72.9807 132.977 73.4179 133.189C72.6627 137.522 60.4064 137.932 57.3059 133.229C57.0144 132.791 56.2592 132.977 56.5109 133.441C60.0619 140.225 74.2527 137.813 74.8622 133.984C82.5604 138.86 84.5744 149.486 86.0584 157.966C86.1909 158.682 87.4629 158.51 87.3569 157.754L87.3702 157.781ZM65.7594 115.686C65.7594 115.686 65.3619 115.434 65.1764 115.54C63.5202 116.52 62.3939 113.884 62.3939 112.691C62.3939 111.565 62.7914 110.916 63.9442 110.849C64.4079 110.823 64.6597 110.889 65.0307 110.558C65.3089 109.551 65.4679 108.531 65.4944 107.484C65.5342 106.079 67.6939 104.595 70.5162 104.595C70.8607 105.364 71.1522 106.172 71.3774 106.98C70.5427 106.556 70.2644 107.484 70.5824 107.563C70.9667 107.709 71.3377 107.921 71.6689 108.173C72.3844 110.664 71.7087 115.076 71.0197 117.236C69.1117 117.978 66.9387 117.342 65.7462 115.686H65.7594ZM68.3299 119.184C68.9394 119.475 69.5887 119.144 70.2379 119.078C70.6752 119.038 70.8209 119.621 70.5692 119.912C69.8007 120.522 68.7009 120.522 67.9324 119.912C67.7337 119.793 67.6807 119.541 67.7999 119.343C67.9059 119.17 68.1444 119.104 68.3299 119.184Z" fill="#333333"/>
</svg>
