<svg width="285" height="285" viewBox="0 0 285 285" fill="none" xmlns="http://www.w3.org/2000/svg">
<path d="M134.362 62.854C132.385 65.5843 137.695 71.9739 142.71 71.9925C142.047 70.2625 136.515 59.8885 134.362 62.854Z" fill="#3ED1E5"/>
<path d="M152.214 52.0039C148.317 52.363 150.295 62.083 153.015 65.1382C154.327 62.4691 156.062 51.6505 152.214 52.0039Z" fill="#3ED1E5"/>
<path d="M168.463 61.4787C165.499 60.6693 161.975 65.9789 160.957 68.4812C167.712 68.2745 170.829 62.1299 168.463 61.4787Z" fill="#3ED1E5"/>
<path d="M182.488 45.8237C172.718 26.3482 137.77 19.0437 123.562 45.3777C111.096 68.4841 127.395 90.7939 151.442 113.848C147.566 118.417 145.944 122.087 146.882 122.65C147.819 123.213 157.127 123.837 158.567 122.65C160.006 121.463 156.133 116.522 154.273 113.848C189.797 81.9133 190.857 62.5076 182.488 45.8237ZM155.556 104.661C155.541 105.352 154.363 105.352 154.349 104.661C154.005 93.0705 155.338 81.4916 158.304 70.2824C156.514 69.9527 154.823 69.2181 153.36 68.1349C151.413 70.875 148.502 72.7762 145.21 73.4559C148.146 83.802 150.37 94.3369 151.866 104.987C151.871 105.15 151.815 105.309 151.709 105.434C151.603 105.558 151.455 105.639 151.294 105.661C151.132 105.683 150.968 105.645 150.832 105.553C150.697 105.462 150.601 105.323 150.561 105.165C148.994 94.4872 146.56 83.9549 143.282 73.6725C132.402 73.245 130.232 63.3441 133.391 61.0128C137.869 57.7096 143.559 68.7876 144.656 71.7829C147.599 71.0953 150.19 69.3586 151.945 66.898C147.989 62.9422 145.713 50.6017 151.886 49.9562C158.679 49.2437 156.545 62.6159 154.451 66.462C155.782 67.4481 157.334 68.0934 158.971 68.3416C160.347 64.6722 164.235 58.7641 168.694 59.5693C174.076 60.5411 170.128 70.6757 160.248 70.4491C157.462 79.8356 155.751 95.0603 155.556 104.661Z" fill="#3ED1E5"/>
<path d="M118.102 118.962C96.7915 110.077 73.1507 126.873 63.7856 145.665C66.3179 148.978 69.1265 152.005 75.8711 157.108C75.0702 151.995 78.4033 151.718 80.3213 154.141C81.202 148.573 81.0338 139.188 92.0918 141.431C97.0337 142.429 100.947 145.311 100.231 150.333C99.498 155.639 99.4501 161.018 100.089 166.336C137.15 172.458 143.483 129.544 118.102 118.962ZM118.182 143.925C115.717 144.831 111.743 144.005 109.28 142.936C107.846 145.223 107.336 147.971 107.855 150.621C110.594 151.037 116.495 152.223 116.301 155.675C116.089 159.433 108.616 159.048 106.588 151.971C105.102 151.754 103.6 151.655 102.098 151.674C101.243 151.674 101.287 150.441 102.098 150.379C103.477 150.268 104.863 150.268 106.242 150.379C105.805 147.544 106.376 144.646 107.855 142.189C105.339 140.839 103.43 138.584 102.514 135.879C95.66 138.906 81.8931 141.467 74.6042 141.467C73.9516 141.467 73.7906 140.582 74.4617 140.478C83.6003 139.044 93.4299 138.312 102.154 134.444C101.343 128.581 107.869 123.764 110.343 127.265C112.558 130.4 106.169 134.04 103.931 135.177C104.273 136.423 104.878 137.582 105.705 138.575C106.532 139.568 107.563 140.371 108.727 140.932C111.912 137.264 118.082 136.388 120.022 139.321C120.267 139.733 120.414 140.196 120.452 140.674C120.49 141.152 120.417 141.632 120.239 142.077C120.061 142.522 119.783 142.921 119.426 143.241C119.07 143.562 118.644 143.796 118.182 143.925Z" fill="#3ED1E5"/>
<path d="M112.031 156.129C114.721 157.215 115.442 155.228 113.652 154.091C112.014 153.199 110.233 152.596 108.39 152.311C108.697 153.166 109.18 153.947 109.807 154.604C110.434 155.262 111.191 155.781 112.031 156.129Z" fill="#3ED1E5"/>
<path d="M109.155 128.229C108.246 127.1 103.874 128.535 103.854 133.738C104.918 132.965 110.449 129.839 109.155 128.229Z" fill="#3ED1E5"/>
<path d="M118.291 140.018C116.296 138.497 112.357 139.889 110.379 141.679C112.059 142.249 116.649 143.173 118.182 141.946C118.348 141.849 118.486 141.713 118.586 141.55C118.686 141.387 118.744 141.202 118.755 141.011C118.766 140.82 118.729 140.629 118.648 140.456C118.567 140.282 118.444 140.132 118.291 140.018Z" fill="#3ED1E5"/>
<path d="M147.882 167.641C149.165 165.666 152.927 165.317 154.569 164.971C154.863 166.26 155.418 167.476 156.198 168.544C156.979 169.612 157.968 170.51 159.107 171.182C159.771 171.563 160.336 170.557 159.8 170.084C155.473 166.269 156.331 163.516 155.548 162.082C155.271 161.578 154.064 161.655 154.301 163.665C151.868 163.033 146.979 164.575 146.271 166.989C145.963 168.036 147.074 168.888 147.882 167.641Z" fill="#191919"/>
<path d="M148.11 163.428C150.591 161.23 152.827 162.25 153.786 161.45C153.848 161.412 153.902 161.362 153.945 161.303C153.988 161.245 154.019 161.178 154.036 161.107C154.053 161.037 154.056 160.963 154.045 160.891C154.033 160.82 154.008 160.751 153.97 160.689C153.33 159.643 148.995 159.75 146.952 162.162C146.05 163.228 145.833 165.442 148.11 163.428Z" fill="#191919"/>
<path d="M160.422 160.283C161.42 160.786 162.997 165.118 163.469 166.216C169.096 179.335 178.191 190.84 184.585 205.831C184.651 205.977 184.769 206.093 184.915 206.157C185.061 206.222 185.226 206.231 185.379 206.182C185.531 206.133 185.66 206.03 185.742 205.892C185.823 205.755 185.852 205.592 185.821 205.435C183.074 193.499 171.054 179.721 165.368 165.736C160.719 154.303 163.636 161.388 149.396 154.263C148.616 153.874 148.023 155.13 148.713 155.609C152.279 157.905 156.255 159.492 160.422 160.283Z" fill="#191919"/>
<path d="M148.693 171.537C149.025 169.827 153.341 169.095 154.726 168.324C154.801 168.276 154.865 168.214 154.915 168.141C154.965 168.068 155 167.986 155.019 167.9C155.038 167.814 155.039 167.724 155.023 167.637C155.007 167.55 154.974 167.468 154.926 167.393C154.155 166.199 148.674 168.047 147.338 169.958C145.946 171.942 148.233 173.91 148.693 171.537Z" fill="#191919"/>
<path d="M277.809 209.408C277.363 206.055 276.304 202.813 274.684 199.843C274.308 199.289 273.477 199.755 273.537 200.368C273.664 201.673 275.658 205.837 276.01 209.664C276.271 211.069 276.079 212.52 275.46 213.808C274.841 215.095 273.828 216.152 272.568 216.825C267.163 220.388 261.534 222.281 255.843 225.281C255.072 225.687 255.487 226.623 256.259 226.37C260.429 224.992 269.923 220.905 273.547 218.39C275.068 217.484 276.285 216.146 277.044 214.547C277.802 212.948 278.069 211.159 277.809 209.408Z" fill="#191919"/>
<path d="M186.69 227.972C185.378 229.261 183.668 230.068 181.838 230.262C180.008 230.456 178.166 230.025 176.613 229.039C166.47 222.73 166.169 197.739 158.658 180.964C157.737 178.906 157.166 178.429 155.631 177.927C153.779 177.32 151.141 176.938 150.142 175.623C149.143 174.307 151.637 172.589 154.158 171.745C155.725 171.222 154.89 170.178 153.485 170.332C152.405 170.565 151.382 171.01 150.475 171.642C149.569 172.273 148.797 173.079 148.204 174.011C147.971 174.625 147.955 175.299 148.159 175.923C148.362 176.547 148.772 177.083 149.321 177.442C151.355 178.576 153.56 179.371 155.849 179.797C158.866 184.345 163.008 201.424 164.572 207.558C166.567 215.359 168.814 227.231 176.549 231.047C180.178 232.838 185.543 232.614 187.893 228.862C188.369 228.108 187.279 227.392 186.69 227.972Z" fill="#191919"/>
<path d="M210.863 128.189C209.738 128.521 208.754 129.217 208.064 130.167C207.55 130.987 208.064 131.837 208.885 131.156C209.613 130.549 210.463 130.107 211.378 129.86C213.283 129.352 212.215 127.794 210.863 128.189Z" fill="#191919"/>
<path d="M218.014 135.448C218.665 135.208 219.377 135.188 220.042 135.389C221.536 135.817 221.039 134.722 220.634 134.34C220.415 134.134 220.155 133.974 219.871 133.872C219.588 133.769 219.286 133.726 218.985 133.744C218.684 133.763 218.39 133.843 218.121 133.98C217.852 134.116 217.614 134.306 217.421 134.539C216.902 135.168 217.162 135.773 218.014 135.448Z" fill="#191919"/>
<path d="M214.394 135.409C213.728 136.079 212.004 139.067 212.326 139.909C212.738 140.985 215.215 141.049 216.214 140.71C217.213 140.371 217.203 139.899 216.54 139.721C216.282 139.651 213.801 139.721 213.711 139.285C213.569 138.623 215.078 136.793 215.175 135.745C215.202 135.448 215.024 134.774 214.394 135.409Z" fill="#191919"/>
<path d="M215.303 143.539C214.876 143.539 214.719 144.316 215.185 144.42C219.833 145.456 222.484 142.966 222.75 141.165C222.874 140.335 222.207 139.305 221.455 140.868C220.703 142.432 219.043 143.757 215.303 143.539Z" fill="#191919"/>
<path d="M209.131 134.687C208.728 135.215 209.043 135.794 209.666 135.597C210.376 135.312 211.165 135.288 211.892 135.527C212.604 135.716 212.889 135.13 212.356 134.538C212.146 134.315 211.89 134.14 211.606 134.025C211.322 133.91 211.016 133.858 210.71 133.872C210.403 133.886 210.104 133.966 209.831 134.107C209.559 134.247 209.32 134.445 209.131 134.687Z" fill="#191919"/>
<path d="M221.92 129.366C220.684 128.439 219.159 127.985 217.618 128.083C216.372 128.301 216.352 129.745 217.529 129.903C218.856 129.968 220.161 130.263 221.387 130.774C222.91 131.419 222.825 130.06 221.92 129.366Z" fill="#191919"/>
<path d="M216.412 153.735C217.718 153.766 219.014 153.51 220.211 152.986C221.407 152.461 222.473 151.681 223.335 150.699C223.428 150.594 223.481 150.458 223.482 150.317C223.484 150.176 223.434 150.039 223.343 149.932C223.251 149.825 223.124 149.754 222.984 149.733C222.845 149.713 222.703 149.743 222.584 149.819C220.231 151.284 217.633 152.944 214.761 151.728C207.986 148.861 206.719 133.93 206.591 127.991C206.577 127.378 205.451 127.18 205.394 127.922C204.854 134.51 206.798 151.352 214.779 153.548C214.537 156.207 213.845 158.805 212.733 161.232C212.292 162.165 214.873 164.6 216.412 153.735Z" fill="#191919"/>
<path d="M229.496 143.529C229.74 146.081 231.672 158.018 232.859 160.501C233.186 161.183 234.451 160.797 234.253 160.104C233.215 156.475 231.571 147.485 230.772 143.351C230.635 142.643 229.425 142.796 229.496 143.529Z" fill="#191919"/>
<path d="M234.165 133.371C232.777 131.361 229.462 131.572 227.785 133.115C227.264 131.68 226.931 130.184 226.796 128.663C226.058 123.533 223.903 128.561 226.954 134.578C227.311 135.093 227.933 135.274 228.309 134.697C229.157 133.396 231.846 133.081 232.727 134.509C233.023 134.997 233.196 135.55 233.231 136.12C233.266 136.69 233.163 137.26 232.929 137.781C232.696 138.303 232.34 138.759 231.891 139.113C231.442 139.466 230.914 139.705 230.353 139.81C225.998 140.636 228.5 141.929 230.638 141.561C231.507 141.405 232.324 141.035 233.016 140.486C233.707 139.937 234.252 139.225 234.601 138.414C234.951 137.603 235.094 136.718 235.018 135.838C234.941 134.958 234.648 134.11 234.165 133.371Z" fill="#191919"/>
<path d="M205.038 112.878C202.815 115.701 201.184 118.941 200.241 122.407C199.711 124.377 199.915 125.216 202.219 125.493C199.928 139.373 196.15 152.966 190.95 166.038C190.676 166.722 191.794 167.024 192.117 166.414C197.213 156.804 202.136 136.632 203.984 125.558C213.001 125.726 222.02 125.425 231.005 124.658C233.121 124.482 233.371 123.918 233.201 122.769C232.479 117.776 229.897 113.239 225.971 110.07C241.301 109.081 245.748 129.079 248.486 140.28C250.461 148.351 253.935 163.275 259.128 170.062C259.225 170.153 259.35 170.21 259.483 170.222C259.616 170.235 259.749 170.203 259.862 170.132C259.975 170.061 260.061 169.955 260.107 169.829C260.153 169.704 260.157 169.567 260.117 169.44C255.478 160.123 253.097 151.174 250.226 139.472C247.293 127.516 241.355 104.836 224.057 108.813C223.967 108.834 213.414 102.195 205.038 112.878ZM223.725 110.386C228.412 113.186 230.648 117.745 231.716 122.977C221.761 123.752 211.77 123.964 201.791 123.61C202.339 120.62 203.512 117.779 205.233 115.272C209.588 108.81 216.717 106.204 223.725 110.386Z" fill="#191919"/>
<path d="M251.917 210.822C251.874 210.689 251.785 210.575 251.665 210.503C251.546 210.43 251.404 210.402 251.266 210.425C251.128 210.448 251.003 210.52 250.913 210.627C250.824 210.734 250.775 210.87 250.777 211.01C251.43 218.833 254.055 236.348 254.16 248.487C240.986 254.323 205.193 251.732 191.603 247.884C189.961 223.852 192.21 201.703 195.114 180.958C195.231 180.117 193.831 179.969 193.659 180.76C192.435 186.468 191.286 196.931 190.692 203.082C187.347 196.831 183.476 190.875 179.121 185.28C187.557 169.683 200.681 165.232 209.425 163.145C215.553 174.084 231.876 172.123 237.64 161.988C251.189 165.538 267.242 178.426 274.372 196.376C268.823 197.474 258.013 203.675 253.543 207.513C252.228 205.119 249.067 199.923 246.947 198.226C245.633 197.174 244.825 197.91 246.076 199.462C248.289 202.286 250.273 205.283 252.01 208.423C253.15 210.418 253.862 209.579 254.849 208.828C260.57 204.443 266.931 200.964 273.71 198.512C275.854 197.737 276.869 197.437 276.004 195.338C269.758 180.191 254.972 165.072 238.926 160.721C236.946 160.186 236.808 160.187 235.909 161.514C231.216 168.434 218.495 172.821 211.065 162.701C209.984 161.229 209.895 161.143 208.267 161.474C202.011 162.735 196.108 165.351 190.972 169.139C185.837 172.927 181.594 177.794 178.541 183.398C177.48 185.363 177.116 185.555 178.641 187.473C182.531 192.362 186.553 199.42 190.508 206.263C189.519 218.795 188.71 234.254 189.717 246.814C189.844 248.382 189.393 248.986 191.132 249.553C204.828 254.018 240.808 255.917 254.508 250.408C256.16 249.744 256.132 249.043 256.075 247.51C255.729 239.048 254.294 218.363 251.917 210.822Z" fill="#191919"/>
<path d="M153.045 153.824C153.414 152.844 153.909 125.963 153.708 125.36C153.454 124.598 152.451 124.876 152.174 125.43C151.391 126.997 150.989 151.626 152.032 153.864C152.079 153.961 152.153 154.041 152.246 154.096C152.338 154.151 152.444 154.179 152.552 154.174C152.659 154.17 152.763 154.135 152.85 154.073C152.938 154.011 153.006 153.924 153.045 153.824Z" fill="#191919"/>
<path d="M197.304 55.7175C199.489 56.42 209.94 55.9369 211.912 54.8967C212.339 54.6672 212.506 53.8422 211.912 53.6797C207.031 53.5634 202.148 53.8116 197.304 54.4221C197.18 54.479 197.075 54.5702 197.001 54.685C196.928 54.7998 196.889 54.9334 196.889 55.0698C196.889 55.2062 196.928 55.3397 197.001 55.4545C197.075 55.5694 197.18 55.6606 197.304 55.7175Z" fill="#191919"/>
<path d="M191.191 35.7746C195.506 34.0329 199.532 31.6453 203.13 28.6938C203.653 28.1894 203.13 26.9924 202.337 27.3486C198.407 29.4785 194.627 31.8743 191.023 34.5192C190.451 34.9125 190.474 36.0525 191.191 35.7746Z" fill="#191919"/>
<path d="M207.54 84.4142C206.514 82.9464 196.334 78.7484 194.109 78.214C193.966 78.1958 193.82 78.2251 193.695 78.2975C193.569 78.3698 193.471 78.4813 193.415 78.6147C193.359 78.7482 193.348 78.8963 193.384 79.0365C193.42 79.1767 193.501 79.3013 193.615 79.3911C195.008 80.3202 205.482 85.7409 207.026 85.6212C207.157 85.6042 207.282 85.5531 207.387 85.4731C207.493 85.393 207.576 85.2868 207.628 85.1648C207.68 85.0429 207.699 84.9095 207.684 84.7778C207.668 84.6461 207.619 84.5208 207.54 84.4142Z" fill="#191919"/>
<path d="M116.906 36.0426C117.58 36.3062 118.024 35.4184 117.638 34.9239C116.088 32.9432 106.6 26.8941 104.424 26.1915C104.237 26.1429 104.039 26.161 103.864 26.2426C103.689 26.3242 103.548 26.4642 103.465 26.6386C103.382 26.813 103.362 27.0109 103.409 27.1982C103.456 27.3856 103.567 27.5506 103.723 27.665C106.255 29.4804 114.546 35.1135 116.906 36.0426Z" fill="#191919"/>
<path d="M107.935 77.0925C105.798 77.805 93.7338 81.5641 93.3875 82.868C93.3617 82.9702 93.3564 83.0765 93.3721 83.1808C93.3878 83.285 93.4241 83.3851 93.4789 83.4752C93.5337 83.5653 93.6058 83.6435 93.6912 83.7054C93.7766 83.7673 93.8734 83.8115 93.9761 83.8356C95.2058 84.1348 107.24 79.381 108.568 78.2196C108.663 78.1136 108.723 77.9803 108.739 77.8386C108.754 77.6968 108.725 77.5538 108.655 77.4294C108.586 77.3051 108.479 77.2057 108.35 77.1453C108.22 77.0848 108.076 77.0664 107.935 77.0925Z" fill="#191919"/>
<path d="M88.9202 53.9135C90.7727 54.3139 103.676 55.3769 106.357 54.8525C106.492 54.8105 106.609 54.7265 106.693 54.6127C106.777 54.4988 106.822 54.3612 106.822 54.2198C106.822 54.0785 106.777 53.9409 106.693 53.827C106.609 53.7132 106.492 53.6291 106.357 53.5871C104.273 52.9231 91.5992 52.1621 89.1368 52.3901C88.393 52.4571 87.9669 53.7083 88.9202 53.9135Z" fill="#191919"/>
<path d="M109.053 169.471C108.572 180.284 106.636 190.982 103.297 201.277C100.874 208.62 99.0504 209.464 86.3394 208.745C86.1433 208.748 85.9548 208.822 85.8097 208.954C85.6647 209.086 85.5731 209.267 85.5523 209.462C85.5316 209.657 85.5832 209.852 85.6973 210.012C85.8114 210.172 85.98 210.284 86.1713 210.327C89.881 211.101 93.7074 211.131 97.4288 210.416C98.974 210.1 100.41 209.387 101.595 208.346C102.78 207.305 103.673 205.973 104.185 204.482C107.137 197.553 110.761 178.832 110.356 169.401C110.317 168.435 109.098 168.578 109.053 169.471Z" fill="#191919"/>
<path d="M88.7491 156.831C88.7305 150.898 89.5841 148.904 90.5688 143.479C90.5969 143.327 90.5688 143.171 90.4899 143.039C90.411 142.906 90.2866 142.807 90.14 142.76C89.9933 142.713 89.8345 142.72 89.6931 142.782C89.5517 142.843 89.4375 142.953 89.3718 143.093C87.6525 147.474 86.796 152.145 86.8495 156.851C86.878 159.61 88.759 160.154 88.7491 156.831Z" fill="#191919"/>
<path d="M93.1694 157.356C93.4121 153.294 93.9243 149.253 94.7027 145.259C94.791 144.804 93.9118 144.626 93.6239 144.982C92.578 146.279 91.2014 153.775 91.1915 157.217C91.1801 160.006 93.0083 160.055 93.1694 157.356Z" fill="#191919"/>
<path d="M60.0668 197.065C58.8598 197.854 59.4184 198.675 60.8876 198.054C68.8206 194.698 80.2761 176.019 82.083 170.266C83.0136 167.299 82.5675 165.598 81.228 163.956C79.793 162.542 78.8798 160.684 78.6374 158.684C78.4193 156.843 79.0991 153.889 77.7653 154.185C77.65 154.212 77.5445 154.27 77.4609 154.354C77.3772 154.437 77.3188 154.543 77.2922 154.658C76.9533 156.008 76.8364 157.403 76.9459 158.791C77.2309 162.131 77.7624 162.319 79.8529 164.724C80.4642 165.413 80.8618 166.265 80.9972 167.176C81.1326 168.087 80.9999 169.018 80.6153 169.854C77.2167 179.312 65.1355 193.753 60.0668 197.065Z" fill="#191919"/>
<path d="M82.5474 161.291C82.7854 161.954 83.8499 161.648 83.8299 161.025C83.6804 155.57 84.2928 150.12 85.6497 144.834C85.8634 144.005 84.5496 143.837 84.246 144.558C82.6614 148.28 81.1638 157.434 82.5474 161.291Z" fill="#191919"/>
<path d="M97.125 147.801C95.5433 152.163 95.9522 157.256 96.1361 161.826C96.5388 166.164 96.0509 170.539 94.7025 174.682C90.7239 188.523 85.6737 201.9 77.46 213.788C68.7476 226.39 59.24 222.595 49.1025 218.891C48.2703 218.588 47.7986 219.939 48.5781 220.326C61.0369 226.515 70.2723 226.897 78.5459 215.382C87.1358 203.427 92.4239 189.438 96.3484 175.339C97.8892 170.896 98.4559 166.174 98.0099 161.492C97.373 149.522 99.4478 147.583 97.98 147.259C97.8883 147.238 97.7933 147.236 97.7006 147.252C97.6078 147.268 97.5192 147.302 97.4397 147.352C97.3602 147.402 97.2914 147.468 97.2374 147.545C97.1834 147.622 97.1452 147.709 97.125 147.801Z" fill="#191919"/>
<path d="M105.907 112.038C115.18 112.422 119.761 113.116 127.013 118.832C127.627 119.317 128.415 118.822 128.002 118.169C124.196 112.139 112.244 109.709 105.839 110.881C105.699 110.907 105.574 110.983 105.487 111.095C105.399 111.207 105.355 111.347 105.364 111.489C105.372 111.631 105.432 111.765 105.532 111.866C105.632 111.967 105.766 112.028 105.907 112.038Z" fill="#191919"/>
<path d="M113.552 105.075C113.393 105.09 113.244 105.164 113.136 105.283C113.029 105.402 112.969 105.556 112.969 105.716C112.969 105.877 113.029 106.031 113.136 106.15C113.244 106.269 113.393 106.343 113.552 106.358C118.344 106.628 122.94 108.353 126.726 111.302C127.815 112.157 128.335 111.542 127.854 110.62C126.021 107.1 117.42 104.809 113.552 105.075Z" fill="#191919"/>
<path d="M136.39 162.547C131.813 169.177 131.593 169.541 124.839 174.208C123.75 174.96 123.85 175.732 125.303 175.306C129.775 173.994 136.253 167.342 137.429 162.953C137.45 162.824 137.427 162.692 137.362 162.578C137.297 162.464 137.196 162.376 137.074 162.329C136.952 162.281 136.818 162.277 136.693 162.317C136.569 162.356 136.462 162.438 136.39 162.547Z" fill="#191919"/>
<path d="M135.044 156.247C135.154 155.426 134.001 155.261 133.699 155.962C129.749 165.103 124.455 167.314 117.51 170.354C116.195 170.924 116.444 171.584 118.162 171.343C125.476 170.313 134.179 162.726 135.044 156.247Z" fill="#191919"/>
<path d="M62.164 136.012C61.0625 136.754 61.4815 137.595 62.3906 137.307C63.155 137.183 63.9391 137.297 64.6364 137.634C65.4401 138.014 65.7764 137.189 65.299 136.477C64.9251 136.027 64.3986 135.731 63.8203 135.646C63.2419 135.56 62.6522 135.69 62.164 136.012Z" fill="#191919"/>
<path d="M67.039 129.999C64.9627 129.531 61.1779 130.101 59.7601 131.522C59.6558 131.626 59.5886 131.762 59.569 131.908C59.5493 132.054 59.5783 132.203 59.6513 132.331C59.7243 132.459 59.8374 132.559 59.9732 132.617C60.109 132.674 60.2599 132.686 60.4027 132.649C62.4378 132.117 64.5496 131.943 66.6442 132.135C68.1547 132.263 67.9096 130.195 67.039 129.999Z" fill="#191919"/>
<path d="M54.8055 149.176C54.1015 149.351 54.1728 149.889 55.1418 149.967C59.4054 150.283 64.6693 144.813 58.6914 139.899C58.1214 139.435 57.5514 140.214 58.0103 140.72C62.1941 145.28 58.6971 148.209 54.8055 149.176Z" fill="#191919"/>
<path d="M46.3979 148.968C45.9035 148.455 45.0627 149.186 45.409 149.769C48.0809 153.737 52.1426 156.561 56.7933 157.682C61.6383 158.838 65.2265 158.225 67.9297 152.321C68.2332 151.657 67.3939 150.966 66.7526 151.728C64.8303 154.008 63.773 157.847 56.4171 155.743C52.5365 154.411 49.0789 152.074 46.3979 148.968Z" fill="#191919"/>
<path d="M36.9633 152.475C39.1483 148.306 41.8032 144.4 44.8763 140.834C48.2379 141.15 48.1994 139.124 46.9924 139.103C46.2741 139.263 45.5256 139.224 44.8281 138.989C44.1307 138.754 43.5111 138.332 43.0366 137.769C41.0416 135.157 44.3975 127.711 49.0487 131.992C49.5959 132.495 49.6329 132.733 50.4837 132.428C53.925 131.19 58.3953 126.959 60.5912 122.607C65.3678 125.574 71.9841 128.122 78.2612 125.336C81.989 123.683 83.8301 119.955 80.8818 113.843C76.926 105.644 62.6418 102.533 56.7693 103.221C50.401 103.968 60.2706 104.35 62.1402 106.406C57.4519 105.836 50.0547 105.28 45.5346 106.976C39.8973 109.084 51.4683 107.546 56.4131 109.102C45.3066 109.672 38.4823 117.795 40.9148 117.845C42.6546 117.877 44.3905 118.02 46.1118 118.275C44.0696 121.889 42.9552 125.952 42.8685 130.102C40.2864 132.417 39.1392 138.212 43.0751 140.288C40.6925 143.029 36.8051 148.838 35.856 151.973C35.6494 152.647 36.6469 153.082 36.9633 152.475Z" fill="#191919"/>
<path d="M83.9424 211.454C83.9424 210.614 82.7154 210.634 82.5074 211.454C80.9399 217.636 84.0749 243.974 85.9687 251.203C66.1099 257.395 36.5212 259.611 16.946 251.381C13.3949 234.015 12.5399 222.374 13.2068 207.578C13.1937 207.392 13.1153 207.217 12.9854 207.083C12.8554 206.949 12.6824 206.865 12.4967 206.846C12.311 206.827 12.1246 206.874 11.9704 206.979C11.8161 207.084 11.7039 207.24 11.6535 207.42C9.84378 217.033 12.4829 241.436 15.0365 251.035C15.5053 252.795 16.3318 253.557 18.4565 254.28C42.3822 262.402 70.2538 258.119 86.6099 253.063C87.9053 252.662 87.616 251.795 87.5006 250.783C86.2566 239.917 83.8284 226.262 83.9424 211.454Z" fill="#191919"/>
<path d="M42.2255 223.62C44.6694 224.18 45.6897 224.105 46.1813 221.73C48.373 211.122 51.726 205.001 58.0487 195.947C59.7815 193.465 59.5065 193.22 56.4812 191.832C50.3751 189.038 44.7734 184.405 40.202 181.43C39.6562 181.075 38.8354 181.737 39.347 182.32C41.9305 185.293 53.104 192.981 56.9714 194.188C51.6904 201.74 44.7863 212.713 44.5397 222.167C34.036 220.496 19.7447 211.095 13.811 202.139C9.96352 196.341 9.0786 189.866 9.10852 183.021C9.1926 166.206 25.0315 157.505 32.7635 154.923C39.0535 157.425 52.7306 165.022 57.2308 170.223C58.3708 171.549 58.9408 171.288 59.2087 169.907C59.7787 167.021 60.1976 164.112 60.6636 161.215C67.6361 161.215 70.0087 162.115 76.5566 165.418C76.6299 165.469 76.7126 165.504 76.7997 165.522C76.8868 165.539 76.9766 165.54 77.0638 165.522C77.151 165.505 77.2338 165.47 77.3074 165.42C77.3809 165.37 77.4436 165.306 77.4919 165.231C77.5402 165.156 77.5731 165.073 77.5885 164.985C77.6039 164.898 77.6017 164.808 77.5818 164.721C77.562 164.634 77.525 164.553 77.473 164.48C77.421 164.408 77.3551 164.347 77.2791 164.301C73.946 161.482 66.5916 159.304 61.6326 159.485C59.2186 159.573 59.0191 159.594 58.7826 162.085C58.5617 164.431 58.1399 167.318 57.9276 168.159C53.9718 163.817 40.4827 155.516 34.6858 153.797C32.4799 153.143 32.5868 152.854 30.4621 153.729C19.2046 158.363 8.59552 167.09 7.31017 179.987C6.69172 186.178 7.63365 195.318 10.6817 200.805C16.396 211.101 30.6374 220.968 42.2255 223.62Z" fill="#191919"/>
</svg>
