<svg width="277" height="277" viewBox="0 0 277 277" fill="none" xmlns="http://www.w3.org/2000/svg">
<path d="M96.3119 111.029C112.523 111.614 92.8872 112.344 52.452 112.642C48.865 112.689 45.278 112.665 41.6911 112.713C36.8458 112.758 31.9788 112.665 27.1326 112.993C26.3174 113.04 26.4112 113.65 26.4112 114.278L26.3621 116.218C25.8034 135.104 26.1057 154.037 27.1075 172.9C27.3869 177.948 27.7131 182.996 27.9925 188.046C28.4814 196.156 28.0863 195.362 27.0103 187.438C24.6077 167.791 23.542 148.002 23.8206 128.209C23.8435 125.124 23.7267 122.015 23.7966 118.929C23.8206 116.755 23.2608 112.595 25.2873 111.146C26.7321 110.094 29.7363 110.561 31.4365 110.515C33.9464 110.444 36.4912 110.422 39.0066 110.398C44.0612 110.374 49.0919 110.422 54.1467 110.444C72.6869 110.515 88.2235 110.725 96.3062 111.029H96.3119Z" fill="#1D1C1D"/>
<path d="M62.6247 158.197H105.32C105.32 146.861 105.296 132.416 105.296 121.08C105.296 120.169 105.226 119.094 104.458 118.649C104.025 118.434 103.541 118.345 103.06 118.392C80.3742 118.345 57.6955 118.361 35.0235 118.438C34.3506 118.44 33.7058 118.71 33.2301 119.187C32.7544 119.665 32.4866 120.312 32.4852 120.987C32.2986 144.5 32.2287 168.038 32.8344 191.528C32.8007 193.607 33.4559 195.637 34.6972 197.302L35.0005 197.606C35.6015 197.947 36.2928 198.094 36.9801 198.026C44.9932 198.026 53.0052 198.003 61.0412 198.003L58.4789 162.685C58.4298 162.111 58.5008 161.533 58.6874 160.987C58.874 160.442 59.1721 159.942 59.5626 159.519C59.953 159.097 60.4272 158.761 60.9547 158.533C61.4822 158.304 62.0514 158.19 62.6257 158.195L62.6247 158.197ZM65.8166 154.012C65.8166 154.457 65.6768 154.807 65.4892 154.807H60.3887C60.2031 154.807 60.0613 154.457 60.0613 154.012V152.917C60.0613 152.473 60.2021 152.122 60.3887 152.122H65.4905C65.6768 152.122 65.8179 152.473 65.8179 152.917L65.8166 154.012ZM81.678 148.638C81.678 149.082 81.5382 149.432 81.3506 149.432H76.2513C76.0643 149.432 75.9239 149.082 75.9239 148.638V147.542C75.9239 147.098 76.0637 146.747 76.2513 146.747H81.3519C81.5382 146.747 81.6792 147.098 81.6792 147.542L81.678 148.638ZM94.9784 133.964V135.058C94.9935 135.253 94.9306 135.447 94.804 135.596C94.6775 135.745 94.4974 135.838 94.3029 135.853H83.3324C83.1379 135.838 82.9579 135.745 82.8313 135.596C82.7041 135.447 82.6418 135.253 82.6569 135.058V133.964C82.6418 133.768 82.7041 133.575 82.8313 133.426C82.9579 133.277 83.1379 133.184 83.3324 133.168H94.3029C94.3992 133.174 94.4936 133.2 94.5805 133.243C94.6674 133.286 94.7442 133.347 94.8072 133.42C94.8701 133.494 94.918 133.58 94.9476 133.672C94.9765 133.765 94.9872 133.862 94.9784 133.959V133.964ZM77.579 126.876C77.579 126.432 77.8346 126.082 78.1141 126.082H86.6627C86.9649 126.082 87.1985 126.432 87.1985 126.876V127.971C87.1985 128.415 86.9422 128.765 86.6627 128.765H78.1141C77.812 128.765 77.579 128.415 77.579 127.971V126.876ZM59.5506 126.876C59.5504 126.772 59.5709 126.669 59.6107 126.573C59.6506 126.476 59.709 126.389 59.7827 126.316C59.8564 126.243 59.9438 126.185 60.04 126.145C60.1361 126.106 60.2391 126.087 60.3428 126.088H73.1533C73.2566 126.087 73.3592 126.107 73.4549 126.146C73.5506 126.186 73.6374 126.244 73.7105 126.318C73.7835 126.391 73.8414 126.478 73.8811 126.574C73.9207 126.67 73.9409 126.772 73.9409 126.876V127.971C73.9421 128.076 73.922 128.179 73.8823 128.276C73.8427 128.373 73.7847 128.461 73.7111 128.535C73.6368 128.609 73.5493 128.667 73.453 128.707C73.3567 128.747 73.2528 128.766 73.1489 128.765H60.3428C60.2386 128.766 60.1352 128.747 60.0387 128.707C59.9422 128.667 59.8545 128.609 59.7808 128.535C59.707 128.461 59.6486 128.373 59.6091 128.276C59.5696 128.179 59.5497 128.076 59.5506 127.971V126.876ZM59.5506 133.959C59.5506 133.515 59.9925 133.164 60.5753 133.164H77.0433C77.625 133.164 78.0682 133.515 78.0682 133.959V135.054C78.0682 135.499 77.625 135.849 77.0433 135.849H60.5753C59.9925 135.849 59.5506 135.499 59.5506 135.054V133.959ZM59.5506 141.485C59.5506 141.041 59.9925 140.69 60.5753 140.69H81.9814C82.176 140.707 82.356 140.799 82.4825 140.948C82.6091 141.097 82.672 141.29 82.6569 141.485V142.581C82.6714 142.776 82.6091 142.969 82.4825 143.118C82.356 143.267 82.176 143.36 81.9814 143.376H60.5753C59.9925 143.376 59.5506 143.024 59.5506 142.581V141.485ZM59.5506 147.539C59.5468 147.438 59.5631 147.336 59.5986 147.241C59.6342 147.146 59.6882 147.059 59.7575 146.985C59.8269 146.911 59.9102 146.852 60.0026 146.81C60.095 146.769 60.1948 146.746 60.2959 146.744H72.3607C72.4621 146.746 72.5615 146.769 72.6541 146.81C72.7466 146.852 72.8297 146.911 72.899 146.985C72.9689 147.059 73.0224 147.146 73.0583 147.241C73.0935 147.336 73.1099 147.438 73.1061 147.539V148.634C73.1099 148.736 73.0935 148.837 73.0583 148.932C73.0224 149.027 72.9689 149.114 72.899 149.188C72.8297 149.262 72.7466 149.321 72.6541 149.363C72.5615 149.404 72.4621 149.426 72.3607 149.429H60.3003C60.1991 149.426 60.0994 149.404 60.007 149.363C59.9145 149.321 59.8313 149.262 59.7619 149.188C59.6926 149.114 59.6386 149.027 59.603 148.932C59.5675 148.837 59.5512 148.736 59.5549 148.634L59.5506 147.539ZM39.4027 186.414C39.0494 186.64 38.6339 186.748 38.2156 186.723C37.7974 186.698 37.3977 186.541 37.0739 186.274C36.7007 185.736 37.1438 184.941 38.0746 184.522C38.4279 184.295 38.8437 184.187 39.2622 184.212C39.6808 184.237 40.0807 184.395 40.4044 184.662C40.7536 185.194 40.3106 185.988 39.4027 186.41V186.414ZM39.4027 177.111C39.0494 177.337 38.6339 177.446 38.2156 177.42C37.7974 177.395 37.3977 177.239 37.0739 176.972C36.7007 176.434 37.1438 175.639 38.0746 175.219C38.4279 174.993 38.8437 174.884 39.2622 174.909C39.6808 174.934 40.0807 175.092 40.4044 175.359C40.7536 175.892 40.3106 176.686 39.4027 177.107V177.111ZM39.4027 167.832C39.0494 168.058 38.6339 168.166 38.2156 168.141C37.7974 168.116 37.3977 167.958 37.0739 167.691C36.7007 167.154 37.1438 166.359 38.0746 165.939C38.4281 165.713 38.8437 165.605 39.2622 165.63C39.6806 165.656 40.0804 165.813 40.4044 166.08C40.7536 166.589 40.3106 167.36 39.4027 167.827V167.832ZM52.5392 186.601C49.4412 187.045 45.948 186.975 44.6898 186.46C43.4327 185.924 44.9463 185.151 48.0443 184.708C51.1424 184.264 54.6356 184.333 55.8938 184.848C57.128 185.357 55.6373 186.152 52.5392 186.597V186.601ZM52.5392 177.293C49.4412 177.738 45.948 177.668 44.6898 177.153C43.4327 176.615 44.9463 175.839 48.0443 175.401C51.1424 174.963 54.6356 175.026 55.8938 175.541C57.128 176.055 55.6373 176.85 52.5392 177.293ZM52.5392 167.985C49.4412 168.43 45.948 168.359 44.6898 167.845C43.4327 167.307 44.9463 166.531 48.0443 166.093C51.1424 165.655 54.6356 165.72 55.8938 166.234C57.128 166.752 55.6373 167.547 52.5392 167.99V167.985ZM56.4994 154.172C55.9167 157.304 55.1899 153.494 54.8451 145.688C54.5002 137.881 54.7054 128.998 55.2652 125.866C55.8469 122.734 56.5747 126.544 56.9185 134.351C57.2448 142.185 57.081 151.046 56.4994 154.178V154.172Z" fill="#3ED1E5"/>
<path d="M109.931 98.1272C109.535 93.7324 109.629 89.2683 109.373 84.8974C109.365 84.643 109.258 84.4019 109.074 84.2269C108.89 84.0512 108.644 83.9562 108.391 83.9625C98.7241 83.9392 88.5462 84.0324 78.8796 84.2426C78.7549 84.242 78.6315 84.2659 78.517 84.3144C78.4018 84.3622 78.2973 84.4334 78.2104 84.5228C78.1235 84.6122 78.0555 84.7186 78.0102 84.835C77.9649 84.9515 77.9441 85.0762 77.9479 85.2008C77.9479 87.7253 77.9705 94.8083 77.9479 98.2204C77.9227 98.3048 77.9195 98.3942 77.9384 98.4804C77.9573 98.566 77.9982 98.646 78.0568 98.7121C78.1147 98.7776 78.189 98.8273 78.2721 98.8563C78.3552 98.8852 78.4439 98.8928 78.5308 98.877H109.233C109.343 98.8928 109.456 98.8821 109.561 98.8456C109.666 98.8091 109.762 98.7474 109.839 98.6668C109.936 98.5056 109.969 98.3136 109.931 98.1291V98.1272ZM84.5436 91.6517C85.617 92.3745 86.5953 93.2307 87.4546 94.2002C88.3857 95.514 86.5002 95.1357 83.1687 93.3578L81.9115 92.6571L81.2819 92.2838L80.9791 92.0968C80.8198 92.0043 80.6845 91.8765 80.5831 91.7223C80.4333 91.5151 80.3445 91.2696 80.3275 91.014C80.3105 90.7584 80.3666 90.5035 80.4881 90.2787C80.6499 90.0143 80.8847 89.8034 81.1636 89.6712L81.3493 89.578L81.6766 89.4376L82.3062 89.1336C82.7255 88.946 83.1215 88.7829 83.5407 88.5959C84.7325 88.0432 85.9941 87.6579 87.2903 87.4502C88.8749 87.3343 87.5239 88.7829 84.2861 90.676L83.6805 91.0046C83.9562 91.2388 84.2439 91.4579 84.5423 91.6618L84.5436 91.6517ZM95.2377 90.0162C94.2128 92.377 92.5816 94.7378 91.5807 95.2723C90.579 95.8332 90.5986 94.3374 91.6266 92.0232C92.6515 89.685 94.2827 87.3255 95.2836 86.7879C96.2594 86.227 96.2594 87.6793 95.2345 90.0162H95.2377ZM106.791 91.111C106.739 91.4509 106.575 91.7638 106.325 91.9993C105.579 92.6017 104.801 93.1633 103.995 93.682C102.935 94.4709 101.765 95.101 100.525 95.5524C99.0099 95.9729 100.106 94.2386 102.878 91.789L103.506 91.2281C103.203 91.111 102.923 90.9706 102.668 90.8547C101.449 90.3505 100.305 89.6819 99.2668 88.8673C98.1254 87.792 100.082 87.792 103.669 88.8912L105.02 89.3117L105.695 89.5453L105.882 89.5919C106.008 89.6341 106.126 89.6976 106.231 89.7795C106.412 89.9495 106.556 90.1559 106.652 90.3857C106.748 90.6149 106.796 90.8623 106.791 91.111Z" fill="#3ED1E5"/>
<path d="M158.683 113.604C159.101 113.579 159.381 112.972 159.337 112.271C159.293 111.57 158.917 111.01 158.498 111.032C158.079 111.056 157.799 111.663 157.843 112.365C157.914 113.11 158.286 113.646 158.683 113.604Z" fill="#1D1C1D"/>
<path d="M149.038 111.427C148.62 111.45 148.318 112.084 148.363 112.806C148.409 113.527 148.806 114.091 149.248 114.068C149.669 114.044 149.971 113.411 149.924 112.688C149.877 111.965 149.456 111.402 149.038 111.427Z" fill="#1D1C1D"/>
<path d="M151.555 108.645C150.484 103.806 145.15 106.518 144.661 107.71C144.172 108.903 145.546 109.416 145.895 109.089C149.714 105.373 151.904 110.164 151.555 108.651V108.645Z" fill="#1D1C1D"/>
<path d="M162.06 109.791C162.339 110.164 163.783 109.907 163.478 108.668C163.175 107.405 158.4 103.85 156.561 108.365C155.955 109.837 158.89 105.536 162.057 109.788L162.06 109.791Z" fill="#1D1C1D"/>
<path d="M154.56 119.046C155.491 118.953 155.048 117.527 154.676 117.41C153.902 117.359 153.132 117.258 152.371 117.106C152.231 116.966 153.209 112.642 152.58 112.104C152.58 112.104 150.763 116.569 150.926 117.41C151.09 118.298 153.627 119.14 154.56 119.046Z" fill="#1D1C1D"/>
<path d="M159.66 123.371C159.712 123.242 159.719 123.099 159.678 122.965C159.637 122.832 159.552 122.717 159.436 122.64C159.321 122.562 159.182 122.528 159.044 122.541C158.906 122.555 158.776 122.615 158.678 122.714C156.628 125.963 154.602 123.205 154.998 124.163C156.325 127.178 159.473 124.28 159.656 123.369L159.66 123.371Z" fill="#1D1C1D"/>
<path d="M112.331 164.775C113.943 161.47 120.031 153.597 131.479 148.556C142.928 143.514 152.345 142.425 155.623 142.511C156.995 145.594 161.213 151.686 167.102 151.397C174.463 151.035 176.906 149.769 181.463 143.958C188.791 145.181 204.834 148.979 210.394 154.393C217.343 161.16 225.425 166.842 228.719 183.372C232.013 199.902 228.874 206.411 223.984 213.023C220.071 218.313 208.489 227.074 203.187 230.793L163.151 236.633L158.831 189.353L155.271 168.411C155.312 167.64 154.696 166.048 151.913 165.852C149.128 165.658 124.364 165.054 112.331 164.775Z" fill="#3ED1E5" stroke="#1D1C1D" stroke-linecap="round" stroke-linejoin="round"/>
<path d="M227.977 176.452C223.874 165.348 215.952 156.08 205.639 150.32C200.076 147.179 194.067 144.909 187.821 143.589C183.754 142.81 179.648 142.241 175.523 141.883V141.836C175.546 138.096 175.546 134.356 175.546 130.64V122.576C175.674 121.755 175.674 120.919 175.546 120.098C176.081 121.36 177.34 122.365 180.391 121.36C185.888 119.561 188.938 113.086 187.798 107.57C187.335 105.853 186.637 104.209 185.725 102.684C188.474 103.176 192.036 102.545 194.018 99.9472C197.074 95.903 191.479 92.2819 191.479 92.2819C191.479 92.2819 196.091 86.344 188.055 82.3011C182.768 79.6356 180.532 83.5394 179.67 86.4844C178.707 83.217 176.764 80.3274 174.104 78.2096C170.612 75.6386 166.466 76.2001 162.947 78.4445C162.841 78.4973 162.74 78.5597 162.645 78.6302C162.745 78.7416 162.838 78.8593 162.924 78.9821C163.282 79.47 163.477 80.0586 163.483 80.6642C163.413 81.0382 163.179 81.0382 162.9 80.8512C162.598 80.6409 162.224 80.2437 161.736 79.7999C161.526 79.6129 161.317 79.4253 161.107 79.2622C158.638 78.2096 146.014 73.4421 144.43 86.7885C144.43 86.7885 135.252 90.2931 137.395 98.9437C137.688 100.288 138.358 101.522 139.324 102.498C140.29 103.475 141.514 104.156 142.851 104.46C142.651 104.954 142.518 105.473 142.455 106.003C142.181 107.788 142.088 109.597 142.176 111.402C142.302 114.02 142.724 116.615 143.433 119.138C144.059 122.222 145.201 125.178 146.811 127.88C150.328 133.28 157.758 134.729 163.465 132.322C165.149 131.649 166.598 130.495 167.634 129.003C168.31 127.95 168.403 127.273 168.31 127.156C168.194 127.039 167.89 127.485 167.075 128.252C165.932 129.351 164.554 130.175 163.045 130.661C160.813 131.384 158.437 131.544 156.128 131.128C153.435 130.746 150.987 129.351 149.28 127.225C147.772 124.994 146.639 122.531 145.925 119.932C144.514 115.5 143.651 110.91 143.356 106.267C143.344 105.677 143.274 105.09 143.146 104.515C145.758 104.936 148.432 104.365 150.647 102.912C152.861 101.46 154.456 99.2308 155.119 96.661C154.886 97.4089 156.354 99.2793 156.796 99.8169C157.535 100.748 158.475 101.499 159.544 102.013C160.774 102.579 162.109 102.878 163.462 102.89C164.814 102.902 166.155 102.627 167.394 102.083C168.641 101.624 169.788 100.925 170.772 100.027C171.074 99.7225 172.168 97.689 172.634 97.876C172.728 97.8993 172.821 97.9937 172.867 98.1795C172.981 98.6988 172.954 99.239 172.791 99.7445C172.626 100.25 172.332 100.702 171.936 101.055C171.653 101.34 171.32 101.57 170.954 101.733C170.884 104.234 171.186 108.535 174.028 109.703C177.777 111.293 176.077 111.223 177.615 108.862C177.996 108.483 178.471 108.212 178.99 108.077C179.51 107.941 180.056 107.946 180.573 108.09C183.251 109.002 182.46 113.77 180.503 115.008C179.135 115.737 177.603 116.1 176.054 116.061C174.983 116.154 174.26 116.39 174.05 117.604C173.853 119.803 173.783 122.012 173.841 124.218C173.795 126.602 173.726 128.963 173.654 131.347C173.584 134.831 173.539 138.313 173.445 141.796C173.393 142.299 173.474 142.806 173.678 143.268C174.284 144.319 175.868 144.226 176.892 144.343C177.964 144.484 179.058 144.624 180.2 144.764C175.146 149.392 170.371 151.379 165.992 150.677C160.914 149.859 157.629 145.559 156.349 143.548C157.28 143.502 158.189 143.478 159.121 143.456C159.842 143.431 161.38 143.759 161.869 143.081C161.966 142.883 162.029 142.669 162.056 142.45C162.091 141.56 162.044 140.667 161.916 139.786C161.776 138.691 161.566 137.752 161.45 137.004C161.37 136.164 161.206 135.334 160.961 134.526C160.705 134.386 160.565 136.42 160.565 136.537C160.518 138.173 160.705 139.786 160.612 141.398C160.612 141.492 160.588 141.632 160.588 141.726C160.588 141.679 150.945 141.821 150.13 141.843C142.444 142.137 134.965 144.425 128.422 148.482C123.621 151.414 119.293 155.063 115.588 159.303C113.561 161.664 113.584 162.109 116.007 160.146C122.109 155.26 128.352 150.351 135.618 147.383C136.783 146.916 137.972 146.471 139.158 146.07C142.878 144.917 146.717 144.201 150.6 143.937C152.091 143.867 153.582 143.703 154.956 143.633C155.457 144.289 155.916 144.975 156.331 145.689C157.113 146.746 158.011 147.71 159.01 148.564C166.533 155.109 175.571 150.973 181.817 144.987C182.581 145.082 183.354 145.198 184.123 145.316C196.351 147.162 208.463 153.17 216.825 162.399C221.143 167.166 224.448 172.765 226.538 178.855C227.712 182.355 228.532 185.965 228.984 189.629C230.048 196.965 228.602 204.447 224.885 210.853C223.503 213.053 221.854 215.071 219.974 216.861C219.043 217.772 218.087 218.637 217.087 219.502C216.644 219.875 215.596 220.436 215.385 220.997C215.34 221.114 215.736 220.95 216.574 220.436C220.156 218.292 223.251 215.418 225.657 211.998C232.969 201.528 232.016 187.97 227.987 176.447L227.977 176.452Z" fill="#1D1C1D"/>
<path d="M208.901 235.167C209.146 233.488 209.099 231.78 208.761 230.118C208.551 229.418 207.829 228.623 207.037 228.74C200.422 229.835 193.807 230.959 187.146 231.942C180.974 232.927 174.778 233.694 168.606 234.629C167.052 234.949 165.481 235.175 163.9 235.307C163.445 232.586 163.164 229.838 163.062 227.08C162.782 224.065 162.573 221.073 162.316 218.058C161.594 208.968 160.965 199.055 159.614 188.514C158.939 183.257 158.124 177.831 156.96 172.292C156.656 170.912 156.354 169.533 156.051 168.131C155.823 167.147 155.253 166.276 154.443 165.677C153.634 165.146 152.681 164.877 151.715 164.91C148.827 164.887 145.961 164.863 143.05 164.793C129.628 164.372 116.194 163.648 102.824 162.736C93.1118 162.08 83.3998 161.334 73.6626 160.96C71.4497 160.89 69.2362 160.866 67.0247 160.936C65.2783 161.006 63.3204 161.076 62.1323 162.596C60.8752 164.14 61.3171 166.219 61.4339 168.042C61.6663 171.384 61.8999 174.703 62.1323 178.069C62.9475 189.943 63.9959 201.84 65.2304 213.667C65.4168 215.31 65.5799 216.894 65.7662 218.529C66.1395 221.919 66.5582 225.308 67.0247 228.674C67.3035 230.684 67.6303 232.647 67.9092 234.657C67.9803 235.508 68.2435 236.33 68.6785 237.064C69.1129 237.796 69.7084 238.42 70.4192 238.888C72.0497 239.823 74.1228 239.566 75.9157 239.636C87.7745 240.173 99.6301 240.703 111.483 241.226C120.569 241.622 129.663 242.012 138.765 242.395C145.822 242.698 152.903 243.002 159.961 243.329C161.684 243.4 163.431 243.47 165.155 243.563H165.272C172.91 242.534 180.575 241.482 188.214 240.454C194.55 239.613 200.909 238.725 207.243 237.837C208.553 237.672 208.804 236.224 208.898 235.171L208.901 235.167ZM86.4291 237.832C81.7478 237.598 77.0445 237.364 72.2681 237.13C70.3814 237.037 70.0786 234.349 69.9149 232.923C69.636 230.281 69.2167 227.667 68.8906 225.023C67.702 215.277 66.7716 205.319 65.8864 195.315C65.0473 185.311 64.232 175.165 63.6031 165.139C63.3941 161.75 73.9912 163.48 75.9245 163.55C90.9253 164.158 105.926 165.302 120.926 166.051C126.842 166.355 132.595 166.635 138.208 166.775C142.61 166.916 146.967 166.962 151.369 166.986C152.124 166.896 152.886 167.086 153.511 167.523C155.328 169.136 155.165 173.04 155.585 175.237C156.935 182.272 157.937 189.379 158.705 196.481C159.707 205.644 160.336 214.175 161.058 221.935C161.407 225.816 161.803 229.508 162.199 232.995C162.456 235.169 162.758 237.273 163.015 239.306C163.048 239.559 163.026 239.817 162.95 240.06C162.874 240.303 162.746 240.527 162.576 240.716C162.405 240.905 162.196 241.055 161.961 241.154C161.728 241.254 161.475 241.302 161.221 241.294C158.124 241.106 152.65 241.012 151.95 240.989C147.897 240.779 143.892 240.592 139.837 240.382C131.313 239.844 122.788 239.563 114.263 239.12C105.225 238.746 95.9088 238.302 86.4279 237.835L86.4291 237.832Z" fill="#1D1C1D"/>
<path d="M166.136 215.253C164.343 216.632 164.296 217.029 166.415 216.141C168.534 215.253 172.425 213.267 177.153 211.069C184.85 207.342 193.051 204.775 201.494 203.449L204.754 203.028C207.014 202.771 207.271 202.467 204.964 202.116C202.738 201.82 200.485 201.805 198.256 202.07C197.138 202.187 195.997 202.351 194.902 202.537C193.865 202.627 192.84 202.83 191.847 203.145C192.256 200.229 192.154 197.264 191.545 194.384C190.706 190.482 189.495 188.821 189.262 190.434C189.005 192.047 189.495 196.3 189.916 200.134C190.056 201.537 190.244 202.705 190.406 203.546C185.635 204.843 181.014 206.638 176.617 208.899C172.975 210.759 169.473 212.884 166.14 215.257L166.136 215.253Z" fill="#1D1C1D"/>
<path d="M109.843 209.292C108.683 209.281 107.537 209.032 106.476 208.561C105.414 208.091 104.459 207.408 103.67 206.554C102.446 205.215 101.609 203.567 101.249 201.786C101.023 200.801 101.034 199.777 101.281 198.797C101.527 197.818 102.002 196.912 102.667 196.152C105.415 193.185 111.005 192.951 114.196 195.592C115.589 196.752 116.552 198.35 116.928 200.127C117.304 201.904 117.072 203.757 116.269 205.385C115.747 206.422 114.979 207.313 114.033 207.982C113.086 208.65 111.99 209.075 110.842 209.218C110.51 209.267 110.175 209.29 109.841 209.288L109.843 209.292ZM102.082 201.648C102.402 203.278 103.159 204.789 104.271 206.019C105.092 206.902 106.107 207.579 107.236 207.998C108.364 208.416 109.574 208.564 110.77 208.429C111.786 208.305 112.757 207.931 113.595 207.339C114.432 206.748 115.112 205.958 115.571 205.039C116.28 203.58 116.48 201.925 116.143 200.337C115.806 198.749 114.949 197.321 113.708 196.278C110.889 193.894 105.719 194.152 103.32 196.746C102.737 197.404 102.321 198.193 102.105 199.046C101.89 199.898 101.882 200.791 102.082 201.648Z" fill="#1D1C1D"/>
<path d="M250.77 234.539C248.209 233.593 245.764 232.356 243.484 230.854C243.42 230.814 243.348 230.788 243.274 230.777C243.199 230.766 243.123 230.771 243.05 230.79C242.978 230.81 242.91 230.844 242.851 230.892C242.792 230.939 242.743 230.997 242.708 231.064C241.334 233.34 240.021 235.617 238.677 237.895C238.435 238.284 239.041 238.614 239.274 238.26C240.618 236.223 242.021 234.185 243.365 232.148C245.377 233.453 247.517 234.547 249.753 235.41C248.798 237.058 247.843 238.766 246.797 240.354C245.395 242.452 243.039 239.874 241.126 239.965C240.618 239.995 240.439 240.833 241.004 240.923C242.944 241.222 245.005 243.501 246.975 241.972C247.782 241.343 250.35 236.728 251.156 235.38C251.193 235.3 251.212 235.213 251.212 235.125C251.212 235.036 251.193 234.95 251.156 234.87C251.12 234.79 251.066 234.719 250.999 234.662C250.933 234.605 250.854 234.563 250.77 234.539Z" fill="#191919"/>
<path d="M158.136 34.2979C157.347 33.4539 155.49 32.8397 154.604 33.8805C154.543 33.9477 154.501 34.0309 154.485 34.1204C154.468 34.21 154.477 34.3025 154.511 34.3873C154.543 34.4722 154.6 34.5459 154.673 34.6002C154.746 34.6545 154.832 34.6871 154.923 34.6944C155.686 34.6934 156.334 34.415 157.034 34.9334C157.393 35.2365 157.625 35.6637 157.685 36.1305C157.745 36.5973 157.628 37.0697 157.357 37.4542C156.006 39.4023 153.366 37.7027 153.488 35.7241C153.5 35.3486 152.963 35.3788 152.94 35.7126C152.832 36.3836 152.945 37.0715 153.261 37.6724C153.578 38.2733 154.08 38.7545 154.693 39.043C155.319 39.3281 156.023 39.3878 156.688 39.212C157.352 39.0363 157.937 38.6359 158.341 38.0784C158.745 37.5209 158.946 36.8405 158.908 36.1519C158.871 35.4634 158.598 34.8089 158.135 34.2989L158.136 34.2979Z" fill="#191919"/>
<path d="M138.063 51.9942C136.334 49.8754 134.852 47.5653 133.647 45.1089C133.612 45.042 133.563 44.9832 133.505 44.9359C133.445 44.8886 133.378 44.8539 133.305 44.8338C133.233 44.8138 133.156 44.809 133.082 44.8195C133.007 44.8301 132.936 44.8558 132.872 44.8952C130.537 46.1577 128.254 47.4509 125.945 48.7299C125.539 48.9419 125.895 49.5347 126.275 49.3481C128.462 48.2768 130.702 47.2353 132.89 46.164C133.964 48.3131 135.256 50.3451 136.746 52.2276C135.09 53.1609 133.403 54.1466 131.7 54.9829C129.43 56.0764 128.702 52.6562 127.008 51.7597C126.555 51.5273 125.978 52.159 126.419 52.5242C127.939 53.7699 128.565 56.7821 131.035 56.4682C132.048 56.3366 136.594 53.6669 137.971 52.9156C138.042 52.8655 138.103 52.8002 138.148 52.7243C138.192 52.6484 138.22 52.5637 138.228 52.4761C138.237 52.3885 138.227 52.3001 138.198 52.2168C138.17 52.1336 138.123 52.0576 138.063 51.9942Z" fill="#191919"/>
<path d="M90.8317 38.391C88.7794 38.9936 86.7736 39.7446 84.8296 40.6384C84.4418 40.788 84.2328 41.0277 84.4657 41.2978C85.869 42.9149 87.451 44.3531 88.8549 45.9714C88.9128 46.0301 88.9833 46.0744 89.0614 46.1007C89.1395 46.127 89.222 46.1345 89.3038 46.1227C89.385 46.1108 89.4624 46.0799 89.5292 46.0325C89.5965 45.9851 89.6519 45.9225 89.6903 45.8497C90.6384 43.6514 91.2818 41.333 91.6016 38.9592C91.6671 38.5407 91.2774 38.2645 90.8317 38.391ZM89.0129 44.6828C87.7589 43.4843 86.3852 42.4355 85.1324 41.237C85.162 41.237 88.9242 39.7988 90.566 39.4119C90.1795 41.2054 89.6595 42.9673 89.0104 44.6828H89.0129Z" fill="#191919"/>
<path d="M210.503 128.169C210.414 128.228 210.342 128.309 210.292 128.403C210.242 128.498 210.215 128.603 210.215 128.71C210.215 128.817 210.242 128.922 210.292 129.017C210.342 129.111 210.414 129.192 210.503 129.251C211.582 130.001 218.885 135.075 219.803 135.363C220.399 135.548 220.681 134.819 220.345 134.396C219.858 133.831 212.912 129.327 211.938 128.681C215.392 126.062 218.77 123.362 222.045 120.532C222.587 120.064 221.791 119.315 221.255 119.766C221.255 119.687 217.481 123.074 210.503 128.169ZM244.651 127.761C241.944 125.458 239.302 123.056 236.685 120.644C236.214 120.21 235.483 121.008 235.927 121.465C238.272 123.871 240.746 126.136 243.296 128.321C241.52 130.057 239.628 131.669 237.633 133.145C234.72 135.318 236.766 135.59 237.218 135.193C240.017 132.726 241.338 132.151 244.687 128.804C244.762 128.738 244.821 128.657 244.861 128.565C244.901 128.474 244.92 128.374 244.916 128.274C244.913 128.175 244.887 128.077 244.842 127.988C244.796 127.899 244.731 127.822 244.651 127.761ZM232.748 117.678C230.094 122.527 226.246 130.959 223.729 136.258C222.943 137.888 224.043 138.974 225.153 136.616C226.777 133.216 232.769 120.161 233.617 118.064C233.825 117.537 233.009 117.201 232.748 117.678Z" fill="#3ED1E5"/>
<path d="M252.462 57.0538H215.789L215.764 78.9235L216.23 80.1291L217.259 80.498H250.771L251.947 80.1782L252.462 79.096V57.0538Z" fill="white"/>
<path d="M221.638 74.6704L232.377 62.6864C233.447 63.7126 235.435 66.616 234.835 70.0168C234.086 74.2682 230.826 75.7728 230.006 76.0177C229.187 76.2626 225.944 78.0819 221.638 74.6704Z" fill="#3ED1E5"/>
<path d="M226.789 68.9956L225.036 60.4564C223.725 60.3322 220.459 62.1917 219.274 66.0745C217.813 70.8672 220.329 73.794 221.769 74.6584L226.789 68.9956Z" fill="#3ED1E5"/>
<path d="M250.767 53.41C252.033 53.4208 252.831 53.7655 252.829 55.507C252.817 63.2461 252.818 70.9863 252.832 78.7266C252.875 79.1389 252.797 79.5551 252.61 79.9246C252.423 80.2942 252.133 80.6014 251.776 80.8097C251.602 80.9004 251.408 80.9476 251.211 80.9464C240.772 80.9464 218.07 80.9243 217.16 80.9357C216.054 80.9495 215.4 80.2822 215.389 79.0609C215.369 76.8524 215.408 61.1489 215.421 55.507C215.4 55.2071 215.414 54.9058 215.464 54.6092C215.541 54.2764 215.727 53.9794 215.994 53.7668C216.26 53.5542 216.591 53.4386 216.931 53.4388C217.548 53.4046 250.724 53.4094 250.767 53.41ZM216.509 57.4821C216.191 57.4821 216.098 57.5542 216.105 57.8809C216.131 59.0302 216.115 60.1791 216.12 61.3285C216.139 67.3431 216.18 73.3616 216.202 79.3769C216.216 79.4997 216.258 79.6168 216.323 79.7206C216.389 79.8245 216.477 79.9126 216.581 79.9775C217.257 80.3382 218.102 80.1544 219.838 80.1538C230.21 80.1538 240.58 80.155 250.946 80.1575C251.153 80.1783 251.361 80.1254 251.533 80.0071C251.705 79.8887 251.829 79.7131 251.884 79.511C252.127 78.7725 252.037 80.5252 252.056 58.0364C252.056 57.6377 251.951 57.5458 251.565 57.5482C245.742 57.5794 222.371 57.4875 216.509 57.4821ZM251.578 56.6096C251.663 56.6096 252.215 56.5075 251.997 55.0836C251.889 54.3696 251.568 54.3402 250.848 54.2753C250.677 54.2934 228.196 54.2501 217.124 54.2429C217.009 54.2277 216.892 54.2371 216.781 54.2703C216.671 54.3036 216.569 54.3601 216.481 54.436C216.394 54.5119 216.323 54.6055 216.274 54.7107C216.226 54.816 216.2 54.9304 216.198 55.0464C216.141 55.4559 216.176 56.6624 216.481 56.6624C222.346 56.6546 245.742 56.6078 251.58 56.6078L251.578 56.6096Z" fill="#191919"/>
<path d="M235.235 68.5783C235.198 70.2321 234.675 71.8375 233.732 73.1941C232.789 74.5502 231.468 75.5971 229.934 76.2027C228.401 76.809 226.723 76.9462 225.111 76.5994C223.5 76.2518 222.027 75.4347 220.876 74.2505C219.726 73.0663 218.95 71.5674 218.645 69.9419C218.34 68.3164 218.521 66.6368 219.163 65.1139C219.806 63.5911 220.882 62.2926 222.258 61.3812C223.633 60.4698 225.245 59.9862 226.894 59.9911C229.134 60.0223 231.27 60.9439 232.834 62.5539C234.398 64.1639 235.262 66.3302 235.235 68.5783ZM234.637 68.2182C234.581 66.4807 233.949 64.8111 232.842 63.474C232.667 63.2542 232.572 63.2341 232.369 63.4526C228.968 67.136 225.576 70.8271 222.192 74.5275C222.034 74.6994 222.001 74.7907 222.214 74.9474C227.353 78.8405 234.693 75.1955 234.635 68.2157L234.637 68.2182ZM219.106 68.939C219.175 70.9051 219.977 72.773 221.353 74.175C221.541 74.3745 221.652 74.4406 221.872 74.1895C223.301 72.5677 224.751 70.9624 226.177 69.3375C226.248 69.2557 226.301 69.16 226.335 69.0574C226.369 68.9542 226.382 68.8452 226.374 68.737C225.895 66.2503 225.412 63.7642 224.924 61.2786C224.861 60.9519 224.763 60.8835 224.423 60.9988C221.264 62.0683 219.066 65.1423 219.104 68.9378L219.106 68.939ZM226.9 68.3857C227.001 68.368 227.02 68.368 227.025 68.3605C228.649 66.4989 230.279 64.6336 231.892 62.7553C231.91 62.7069 231.915 62.6545 231.907 62.6035C231.899 62.5525 231.877 62.5045 231.845 62.464C230.997 61.7255 229.995 61.1847 228.914 60.8809C227.832 60.5771 226.697 60.5177 225.589 60.7069C225.539 60.7326 225.495 60.7709 225.465 60.8181C225.433 60.8654 225.414 60.9199 225.41 60.9766C225.93 63.4324 226.396 65.9034 226.897 68.3844L226.9 68.3857Z" fill="#191919"/>
<path d="M247.936 62.7865C248.194 62.7997 248.459 62.8363 248.444 63.1699C248.431 63.4702 248.172 63.5042 247.933 63.5042C247.693 63.5042 238.23 63.5243 237.984 63.4866C237.713 63.4444 237.713 62.8717 237.984 62.8075C238.246 62.7456 247.865 62.7822 247.936 62.7865Z" fill="#191919"/>
<path d="M240.779 73.3798C240.711 73.3571 240.652 73.3143 240.609 73.2564C240.566 73.1991 240.543 73.1298 240.541 73.0581C240.54 72.9863 240.561 72.9158 240.6 72.8566C240.641 72.7968 240.698 72.7515 240.765 72.7263C241.01 72.6281 248.988 72.6659 249.071 72.7225C249.134 72.7477 249.19 72.7918 249.229 72.8484C249.268 72.9051 249.29 72.9718 249.292 73.0411C249.293 73.1097 249.274 73.1777 249.238 73.2362C249.201 73.2941 249.148 73.3407 249.085 73.3684C248.939 73.3949 240.868 73.4119 240.779 73.3798Z" fill="#191919"/>
<path d="M242.933 65.0704C243.202 65.0704 243.487 65.0956 243.477 65.4545C243.469 65.785 243.192 65.8095 242.944 65.8102C241.377 65.8102 239.808 65.8102 238.239 65.8102C237.988 65.8102 237.714 65.7774 237.716 65.4438C237.716 65.0837 238.006 65.0704 238.274 65.0704H242.933Z" fill="#191919"/>
<path d="M238.096 73.344C237.728 73.3156 237.624 72.863 237.954 72.7516C238.294 72.7302 239.15 72.683 239.689 72.7081C240.015 72.7843 240.008 73.315 239.864 73.3471C239.277 73.4069 238.684 73.4057 238.096 73.344Z" fill="#191919"/>
<path d="M217.858 55.4571C217.858 55.599 217.914 55.7351 218.015 55.8355C218.115 55.9358 218.25 55.9922 218.392 55.9922C218.533 55.9922 218.669 55.9358 218.769 55.8355C218.868 55.7351 218.925 55.599 218.925 55.4571C218.925 55.3151 218.868 55.1791 218.769 55.0788C218.669 54.9784 218.533 54.922 218.392 54.922C218.25 54.922 218.115 54.9784 218.015 55.0788C217.914 55.1791 217.858 55.3151 217.858 55.4571Z" fill="#191919"/>
<path d="M219.862 55.4535C219.862 55.5954 219.918 55.7315 220.018 55.8319C220.119 55.9322 220.254 55.9886 220.396 55.9886C220.537 55.9886 220.673 55.9322 220.773 55.8319C220.873 55.7315 220.929 55.5954 220.929 55.4535C220.929 55.3116 220.873 55.1755 220.773 55.0752C220.673 54.9748 220.537 54.9185 220.396 54.9185C220.254 54.9185 220.119 54.9748 220.018 55.0752C219.918 55.1755 219.862 55.3116 219.862 55.4535Z" fill="#191919"/>
<path d="M221.849 55.4571C221.849 55.599 221.905 55.7351 222.005 55.8355C222.105 55.9358 222.24 55.9922 222.382 55.9922C222.523 55.9922 222.659 55.9358 222.759 55.8355C222.858 55.7351 222.915 55.599 222.915 55.4571C222.915 55.3151 222.858 55.1791 222.759 55.0788C222.659 54.9784 222.523 54.922 222.382 54.922C222.24 54.922 222.105 54.9784 222.005 55.0788C221.905 55.1791 221.849 55.3151 221.849 55.4571Z" fill="#191919"/>
</svg>
